<?xml version="1.0" encoding="UTF-8"?>
<!DOCTYPE svg PUBLIC "-//W3C//DTD SVG 1.1//EN" "http://www.w3.org/Graphics/SVG/1.1/DTD/svg11.dtd">
<!-- Creator: CorelDRAW X5 -->
<svg xmlns="http://www.w3.org/2000/svg" xml:space="preserve" width="139.228mm" height="130mm" style="shape-rendering:geometricPrecision; text-rendering:geometricPrecision; image-rendering:optimizeQuality; fill-rule:evenodd; clip-rule:evenodd"
viewBox="0 0 13923 13000"
 xmlns:xlink="http://www.w3.org/1999/xlink">
 <defs>
  <style type="text/css">
   <![CDATA[
    .fil4 {fill:#00913E}
    .fil1 {fill:#1F1A17}
    .fil5 {fill:#2B1E19}
    .fil8 {fill:#383431}
    .fil39 {fill:#393529}
    .fil40 {fill:#4B3733}
    .fil12 {fill:#53514E}
    .fil15 {fill:#7E7B79}
    .fil36 {fill:#898684}
    .fil13 {fill:#B5B4B3}
    .fil34 {fill:#BDBBBB}
    .fil35 {fill:#C2C1C1}
    .fil41 {fill:#C8241C}
    .fil26 {fill:#C8C7C7}
    .fil17 {fill:#CAC9C9}
    .fil30 {fill:#CBCBCB}
    .fil14 {fill:#CECDCD}
    .fil32 {fill:#D0CFCF}
    .fil24 {fill:#D2D1D1}
    .fil20 {fill:#D4D3D3}
    .fil7 {fill:#D5241C}
    .fil25 {fill:#D6D5D5}
    .fil37 {fill:#D8D7D7}
    .fil21 {fill:#D9D8D7}
    .fil16 {fill:#DCDBDB}
    .fil28 {fill:#E0DFDE}
    .fil19 {fill:#E4E4E3}
    .fil42 {fill:#E77817}
    .fil6 {fill:#E7B602}
    .fil31 {fill:#E9E9E9}
    .fil23 {fill:#EAEAEA}
    .fil22 {fill:#ECEBEB}
    .fil18 {fill:#EEEDED}
    .fil2 {fill:#F0A500}
    .fil27 {fill:#F0F0F0}
    .fil10 {fill:#F2BE00}
    .fil29 {fill:#F3F3F3}
    .fil11 {fill:#F6C100}
    .fil33 {fill:#F6F5F5}
    .fil3 {fill:#F8C300}
    .fil43 {fill:#F8F7F7}
    .fil44 {fill:#FCFCFC}
    .fil9 {fill:#FDFDFD}
    .fil38 {fill:#FFF9E3}
    .fil0 {fill:white}
    .fil45 {fill:black;fill-rule:nonzero}
    .fil46 {fill:#1F1A17;fill-rule:nonzero}
    .fil47 {fill:#FF6600;fill-rule:nonzero}
   ]]>
  </style>
 </defs>
 <g id="Layer_x0020_1">
  <metadata id="CorelCorpID_0Corel-Layer"/>
  <path class="fil0" d="M7998 7284l40 34c26,30 77,114 63,156l-18 17c-39,43 -75,40 -139,51 -49,8 -86,21 -141,34 -1,-64 -48,-121 -61,-378 70,0 149,-1 212,39 3,2 20,16 23,18 25,25 -3,-13 21,28zm-481 -1064c33,60 13,107 33,182 19,68 20,136 22,213 47,56 37,159 38,242 58,79 41,160 47,275 25,8 32,-37 18,29 13,43 29,91 36,139 9,70 -8,91 -5,146 41,14 32,-26 28,38 30,58 22,93 44,157 11,34 23,48 -6,74 60,13 28,-1 44,31l-77 38c-2,-3 -6,4 -9,6l21 -8c7,89 6,26 -12,38 -50,32 -102,24 -161,29 -60,5 -96,23 -144,29 -48,65 -183,-19 -293,6 -15,44 -29,42 -62,49 -23,-28 -22,-40 -19,-68 -87,-5 -174,40 -236,10 48,-50 51,-10 96,-44 -17,-7 -20,-8 -35,-17l-40 -31c-3,1 -7,0 -9,0 -83,4 -26,16 -94,39 -34,12 -107,14 -147,23 -84,19 -199,57 -289,59 -145,4 -153,-40 -293,16 -72,29 -88,27 -146,0 -70,-32 -96,-21 -134,-41 -2,-10 -5,-4 -1,-33l27 -76 93 17c20,4 30,-4 61,-1 19,-11 24,-17 38,-32l7 -42c52,-12 70,-32 113,-33 38,-48 28,-30 24,-106 -3,-49 -1,-80 11,-122 0,-78 -13,-29 31,-41l11 -14c-28,-22 -23,47 -23,-29l-12 0c0,-63 -2,-106 8,-168 20,-136 19,-100 53,-106l10 -12c-11,-2 -21,4 -35,-7 -2,-64 -30,-118 14,-204 37,-72 8,-11 10,-150 1,-56 12,-84 13,-134 17,-15 28,-5 38,-6 -19,-46 -49,-177 10,-213 0,-44 -8,-38 -8,-75 0,-24 -1,-17 7,-38 6,-17 9,-17 13,-22l0 -20c-25,-23 -6,14 -20,-31 -4,-12 -5,-22 -2,-35 7,-32 12,-30 44,-41 101,13 415,-26 531,-39 90,-10 182,-14 269,-24 95,-11 175,-28 247,4 36,-8 43,-1 77,11 9,3 30,9 36,12 25,13 22,14 38,29 21,-9 -31,-20 37,-4 49,12 48,54 49,114 -17,10 -10,6 -29,9zm-431 -1297c29,36 -11,10 53,19 55,8 3,8 47,7 28,-39 40,-71 61,-125 53,13 -7,6 35,14 25,5 5,2 44,-2 -1,68 -15,23 32,56 54,37 82,24 107,75 -11,52 -41,53 -88,74 -34,38 -82,45 -136,79l-7 23c9,27 -24,13 29,17l101 -60 82 64 -106 0c29,33 30,18 48,64l-84 -2c29,30 41,22 44,72 -27,-6 -16,-5 -40,-20 -44,-29 -60,-36 -81,-80 -26,44 -15,41 18,68 17,14 41,33 57,44 -19,90 -36,138 -23,243 37,111 72,87 151,141 17,12 13,11 24,21 -81,15 -100,-3 -128,-2 -30,1 -7,-2 -24,8 35,21 20,14 44,46 -22,26 -62,55 -104,24l-32 -31c-1,-5 -5,-5 -8,-7 -53,99 -159,39 -259,33 -102,45 -73,-11 -186,74 -45,33 -180,28 -223,7 29,-63 183,-94 246,-121l9 -23c-42,-10 -53,-24 -74,-46l-186 -27c-98,123 -165,113 -256,178 -159,114 -7,69 -203,38 -71,-11 -68,4 -97,-46 79,-16 119,14 191,-28 88,-52 285,-277 373,-291 71,-27 111,11 211,-39 48,-24 100,-67 99,-136 -72,21 -150,56 -196,-3 -35,-64 1,-96 25,-152 24,-59 7,-108 30,-154 152,-25 25,145 25,256l127 -66c16,-30 12,-28 52,-18l33 -51c-64,5 -80,20 -127,44 7,-39 10,-43 44,-61 -56,-27 -20,11 -61,-24l49 -17c-31,-25 -16,-1 -32,-53 54,9 46,28 113,17 -60,-4 -72,-20 -111,-59 -45,-45 -64,-36 -101,-68 45,-28 75,-18 192,-59 24,62 56,123 142,102 -19,-46 -12,-81 -9,-129l-24 -24c19,-85 50,-57 112,-72 1,2 1,5 2,6 16,58 12,18 59,54 -7,105 -50,73 -50,73 -52,-1 -23,3 -56,53zm2664 3399c16,-24 -8,-23 68,-12 99,14 210,-18 198,59 24,75 60,171 4,244 -13,16 -77,50 -100,70 -29,25 -43,58 -76,83 -74,56 -176,23 -251,-17 -77,-41 -178,-49 -280,-51 -36,68 -118,172 -164,239 -54,80 -105,154 -150,242l156 -1c39,-41 15,-60 67,-119 27,-30 67,-66 86,-97 24,-38 34,-95 64,-122 44,-40 33,2 33,3 0,1 -13,54 -14,60l83 -9 -14 77 97 -6c7,13 5,-1 3,20l-25 63 78 -2 6 62 62 1c11,-45 7,-54 13,-84 30,96 -46,113 -103,156 -57,42 -65,105 -155,119 -177,27 -130,-98 -452,-96 -55,63 -103,175 -96,282 55,-81 83,-127 186,-162 104,-35 219,-21 305,26 47,25 64,54 98,73 34,20 92,27 135,47 70,31 195,103 170,186 -65,-8 -131,-47 -221,-57 43,294 -92,483 -325,548 -263,74 -775,-92 -1102,-162 -324,-70 -829,-167 -1143,-155 -559,21 -1013,93 -1539,217 -263,62 -853,212 -1046,-91 -91,-144 -58,-196 -75,-363 -70,-1 -173,44 -206,35 -13,-41 24,-77 51,-102 99,-93 184,-81 243,-110 37,-19 50,-45 116,-68 209,-74 427,16 474,190 60,-111 -110,-412 -161,-464 -321,12 -507,-39 -631,-241 75,18 77,33 179,28 364,-16 211,113 433,180 -30,-76 -110,-175 -149,-244 -171,31 -326,52 -489,-64 -45,-33 -61,-62 -94,-88 57,3 69,21 144,11 58,-8 103,-28 166,-20 98,13 149,104 244,128 -25,-58 -73,-125 -106,-174 -251,44 -481,-7 -579,-172 124,26 262,-16 333,11 83,31 138,117 226,135 -21,-38 -116,-192 -143,-219 -94,10 -389,150 -527,-148 227,53 154,0 281,19 47,7 162,71 222,92 -21,-52 -63,-111 -97,-153 -268,98 -440,30 -527,-187 41,16 77,37 136,40 294,13 90,-1 379,120 -29,-65 -75,-131 -107,-196 -108,18 -231,81 -351,31 -70,-29 -170,-133 -190,-211 133,73 173,11 297,45 64,18 150,85 226,109l-83 -181c-237,38 -363,107 -521,-208 46,13 61,34 125,42 51,6 112,0 160,12 39,9 159,89 211,113l-74 -153c-94,-4 -401,84 -477,-261 129,68 124,35 261,74 77,22 109,90 193,123l-74 -195c-128,-6 -225,32 -330,-36 -56,-36 -132,-136 -147,-231 114,78 147,37 263,77 75,26 119,108 201,131l-36 -124c-165,-17 -409,-16 -462,-290 189,145 178,-55 447,235 -32,-139 -17,-145 -76,-162l-124 -22c-166,-36 -234,-122 -284,-296 44,22 61,47 125,66 49,14 102,15 144,37 60,32 122,135 177,185l-22 -120c-18,-54 -83,-51 -165,-77 -145,-47 -250,-152 -262,-330 82,55 102,77 222,103l-87 -62c-28,-25 -45,-45 -63,-72 -41,-62 -59,-132 -58,-218 43,38 49,60 114,89 246,110 130,158 272,305l-8 -206c-206,-91 -378,-136 -376,-430 42,32 39,55 98,87 49,27 90,34 127,68 54,50 70,119 105,187 12,22 5,14 18,31 18,23 9,12 27,27l5 -182c-192,-111 -360,-150 -345,-452 72,58 58,92 179,131 -8,-12 -4,-7 -16,-21 -2,-3 -9,-10 -11,-13 -87,-94 -109,-185 -103,-324 36,17 22,19 47,51 44,55 107,69 156,124 55,61 49,206 115,256l29 -168c-21,-100 -332,-99 -263,-536 50,58 68,115 141,157 -57,-88 -128,-246 -49,-377 51,84 101,130 149,204 55,85 26,205 77,281l56 -184c-170,-134 -292,-357 -180,-566 25,44 29,70 60,115 147,210 65,204 122,431 17,-29 78,-172 78,-199 -1,-36 -85,-119 -110,-151 -97,-127 -99,-265 -18,-406 175,143 109,325 137,523 20,-14 79,-127 84,-145 17,-61 3,-138 25,-207 33,-105 136,-169 258,-204 -15,130 -43,240 -117,308 -116,105 -119,59 -182,224 63,-34 114,-89 210,-95 52,-3 227,7 287,11 -60,50 -86,107 -196,137 -105,29 -214,-1 -324,6 -37,45 -65,121 -77,187 43,-22 19,-11 53,-41 44,-39 95,-64 159,-70 52,-5 104,0 157,-5 47,-4 88,-18 132,-23 -121,211 -325,192 -538,227l-41 160c42,-55 112,-127 201,-144 129,-26 119,0 311,-51 -92,260 -321,193 -527,249l-27 135c2,-2 6,-5 7,-7l39 -37c52,-50 89,-78 166,-88 126,-16 180,-3 289,-49 -17,80 -111,167 -188,198 -84,33 -253,6 -321,58 -22,33 -25,102 -28,149l45 -49c86,-103 241,-90 410,-151 -61,248 -266,223 -465,281l-13 149 42 -49c19,-24 17,-24 40,-44 76,-66 264,-84 372,-132 -49,219 -226,248 -456,293l1 146c77,-63 36,-108 188,-153 121,-36 142,-46 229,-99 -23,225 -213,289 -418,339l4 139c72,-90 36,-110 173,-159 104,-37 135,-53 205,-110 0,184 -98,252 -229,310 95,-12 183,-53 251,-91 -8,235 -185,234 -369,302l14 103c2,-3 5,-6 7,-8l18 -24c39,-52 87,-81 151,-105 79,-30 136,-58 191,-98 5,251 -178,249 -347,335l31 115c26,-86 74,-121 150,-158 87,-42 121,-67 192,-116 8,307 -185,234 -319,371l26 84c58,-134 224,-168 329,-265 32,236 -139,278 -293,360 2,27 5,43 13,65l26 51c26,-80 74,-115 135,-160l142 -132c67,284 -134,275 -232,413l40 76c56,-61 59,-76 134,-138 60,-50 89,-96 133,-132 85,230 -102,291 -210,402l45 92c32,-116 35,-115 115,-181 47,-38 113,-123 145,-142 67,249 -104,270 -216,387 4,44 32,85 59,118 53,-166 133,-171 199,-323 56,64 70,164 14,246 -35,50 -115,123 -157,171 23,49 46,89 78,128 17,-129 122,-238 187,-360 155,147 -48,332 -134,449l84 122c0,-96 25,-141 64,-206 35,-58 50,-120 82,-176 94,104 89,197 18,325 -92,165 -130,121 -22,282 5,-121 12,-136 62,-219l89 -182c117,112 67,241 -9,360 -98,157 -81,163 29,309 -8,-122 -21,-159 30,-263l93 -217c210,332 -35,393 -63,551 -16,88 262,338 129,574l-2 86c116,-119 130,-242 175,-269 36,-120 57,-132 130,-202 -2,30 -7,69 -6,97 2,43 -4,59 31,60l6 -25c19,-72 67,-144 126,-187l1 154 19 -18c21,-65 62,-104 102,-132l4 140c46,-14 9,-21 63,-98l84 -83c-5,53 -16,110 18,144 20,-93 79,-127 122,-174l5 149 9 -8c25,-35 22,-52 53,-91 30,-38 27,-40 68,-65l-6 130c7,15 3,5 18,15 40,-95 66,-135 136,-181 -3,32 -35,144 10,145 12,-73 64,-144 106,-169l7 151c18,-19 -1,20 19,-21 14,-47 34,-76 68,-96l18 -27c2,51 -4,90 11,129 62,-79 55,-123 136,-176l10 145 16 -53 87 -440 126 435 15 0c12,-87 95,-501 128,-547l135 608 18 -6 115 -491 89 421 18 24 -4 -113c65,27 101,114 138,173 20,-61 17,-69 8,-133l18 24c40,24 48,37 64,81 29,38 -5,6 36,28l3 -138 17 21c49,36 78,94 90,151 43,-26 12,-95 13,-147 59,51 78,63 113,135 11,22 6,16 17,34 13,20 6,10 21,25 3,-59 -3,-107 -2,-157l29 30c44,28 73,76 89,137l19 -38 -7 -113c47,27 105,94 125,160 21,13 3,11 24,2l-3 -137c36,23 64,50 87,86l57 114 12 -43 2 -92c48,20 48,21 73,60 22,34 19,42 43,64l3 -149c52,38 102,97 127,183l22 52c24,-67 17,-100 10,-179 80,38 107,130 140,205 56,23 26,52 82,163 32,64 69,105 107,144 -6,-52 -4,-156 -24,-190 -48,-119 48,-267 86,-355 -40,-69 -49,-89 -125,-120 -53,-22 -102,-56 -129,-102 -43,-71 -16,-129 -26,-204 -15,-105 -46,-70 22,-157 -19,46 3,57 26,84 35,-12 31,-17 61,-34 23,22 31,40 53,64 21,-46 16,-50 59,-72l59 85c28,-15 13,-10 32,-25 2,-1 5,-4 7,-6l22 -15c32,31 19,34 49,62 18,-17 12,-9 26,-34l22 -42c21,36 21,13 11,73 -11,64 -46,87 -67,155 -37,119 -71,106 -114,177 14,38 10,44 38,72 49,-70 100,-153 147,-228 48,-76 104,-149 153,-220 -10,-20 -38,-57 -55,-68 -26,-18 -51,-16 -85,-24 -179,-43 -152,-127 -196,-269 -37,-118 -58,-26 -15,-167 13,55 -11,36 48,83 37,-21 15,-21 59,-43l55 56 32 -82c50,18 43,39 85,71 40,-28 15,-32 64,-58l46 58c26,-25 30,-59 34,-95 -134,-84 -88,-94 -141,-234 -39,-104 -91,-88 19,-237 -21,47 -38,61 -42,120 35,13 33,24 62,14l36 -26c1,-4 5,-4 10,-8l57 50 26 -84c47,15 58,41 93,69 18,-30 23,-44 56,-65 30,25 26,36 58,58 17,-49 35,-61 -9,-94 58,9 68,26 62,95 -4,49 -22,66 -26,123 -10,142 -25,123 -70,219l45 61c2,-2 5,-4 6,-6l37 -48c12,-22 19,-36 30,-56 22,-42 43,-77 64,-119 37,-76 78,-173 105,-259 -64,-69 -61,-60 -178,-76 -197,-26 -148,-155 -230,-270 -51,-71 -36,-81 5,-152 -27,69 -17,55 26,94 36,-12 29,-25 63,-47 25,17 34,26 65,42l20 -83c68,19 38,39 98,62 19,-25 19,-37 41,-66 43,21 44,51 69,44 26,-49 20,-60 -13,-84 114,10 50,128 49,218 -1,121 -12,131 -58,218l58 61c52,-110 139,-376 147,-522 -83,-10 -95,-35 -195,-49 -182,-25 -147,-138 -211,-254 -60,-108 -43,-47 -18,-158 15,50 -37,36 45,82 31,-14 16,-20 50,-47l47 47 19 -44c8,-22 -4,-9 19,-39 68,26 27,34 85,58l37 -61c35,16 27,25 61,49 5,-18 5,-28 10,-49 3,-16 3,-16 7,-28l7 -17c54,81 12,124 12,229 1,131 -39,133 -49,220 26,11 50,20 91,25l55 -536c-36,-16 -72,-35 -98,-48 -52,-25 -64,-5 -132,-12 -148,-16 -135,-136 -206,-223 -21,-26 -49,-44 -43,-91 2,-16 29,-102 35,-111 23,-37 32,-20 66,-64 -36,81 -31,3 -67,76 -16,33 -20,77 -10,106 69,19 45,11 77,-37 33,14 37,21 68,34l9 -84c46,13 44,28 85,50 37,-44 10,-13 32,-65 52,19 28,29 74,35l4 -66 -39 -20c92,-5 77,91 77,163 0,143 21,118 -21,264 36,25 47,32 96,50l1 -489c-9,-10 -128,-86 -133,-89 -58,-26 -124,3 -180,-37 -45,-32 -60,-75 -83,-136 -30,-79 -63,-72 -69,-157l64 29 20 -53c37,13 35,17 63,30l13 -79c33,14 49,31 75,53l32 -67c39,19 16,23 58,33l1 -62c-41,-25 -35,1 -57,-31 116,53 85,-40 95,192 5,131 14,113 -20,241 40,35 58,55 121,76 -3,-178 -27,-350 -55,-521 -45,-16 -81,-24 -118,-41 -60,-28 -51,-26 -122,-11l0 21c-98,-12 -163,-45 -216,-134 -57,-95 -146,-130 -102,-228 0,39 -7,69 39,69 52,-1 9,-4 48,-54l58 29 -8 -92c48,6 52,21 95,35l11 -74c45,10 26,10 71,29 -3,-32 4,-44 -18,-67 -19,-21 -37,-3 -43,-18 -1,-4 -6,-1 -9,-1l74 -4c55,100 30,103 65,205 36,106 18,121 23,233 50,25 78,45 141,51 -19,-94 -108,-504 -230,-523 -163,-26 -139,-44 -216,-162 -26,-40 -74,-67 -84,-100 -12,-37 -7,-135 7,-163 -1,45 -17,106 14,133 52,46 51,-19 62,-50 33,10 43,14 70,31l-10 -94c60,4 48,19 100,34l15 -81 67 36 -6 -78c-45,-9 -51,0 -77,-8 134,-52 126,92 148,180 46,181 65,87 21,287 -19,84 54,189 82,269 31,91 49,190 78,275 31,-32 42,-64 59,-108 -19,-36 -46,-53 -70,-100 -56,-113 2,-64 -105,-225 -35,-53 -22,-56 -4,-101 23,66 2,33 51,78l31 -68c41,14 31,17 61,39 23,-28 27,-57 53,-93 12,15 39,47 57,64 17,-19 24,-39 40,-63 18,8 36,21 59,29 27,-45 10,-40 52,-60 -6,229 119,286 -62,431 -36,29 -91,52 -113,81 -87,112 -100,152 -81,276 19,119 28,237 33,357 48,-29 67,-66 110,-92 -31,-115 -35,-73 -35,-224 0,-80 -49,-148 -27,-204 31,8 33,37 54,66l37 -58c32,18 10,0 37,31 11,12 5,10 18,26 42,-31 33,-46 73,-67l29 56c1,2 3,11 4,10 1,-2 2,7 4,10 20,-19 25,-26 49,-45 3,2 6,5 7,6 18,15 26,27 51,31 30,-32 21,-29 37,-69 16,86 -19,129 -20,219 -3,210 -174,160 -282,232 -37,25 -122,85 -136,121l-10 561c63,-26 94,-40 131,-87 -44,-72 -19,-125 -9,-206 11,-88 -27,-126 -6,-209 41,19 28,22 43,75 34,-24 24,-31 64,-49l32 62 40 -32c28,-24 3,-12 50,-29l20 82c32,-20 21,-21 66,-38l27 46 56 -29 -6 -58c25,120 8,61 -24,165 -22,70 1,109 -46,162l-81 71c-32,32 -110,6 -184,28 -16,5 -127,60 -140,68 -50,32 -41,84 -47,161 -10,117 -23,253 -44,363 60,-9 111,-56 155,-81 -23,-117 -20,-101 3,-218 17,-88 -17,-130 3,-214 47,24 21,16 44,78l59 -50c11,17 24,51 36,67 34,-24 44,-44 90,-56l9 86c41,-17 20,-17 64,-43l32 54c33,-17 39,-27 73,-37 -8,59 -46,78 -60,152 -49,261 -189,150 -382,239 -179,83 -123,36 -171,245 -27,120 -64,215 -96,325 64,-16 94,-33 143,-58 11,-118 -6,-98 34,-210 30,-83 1,-143 32,-212 43,26 12,22 42,77 14,-14 34,-29 56,-41l34 72c41,-22 38,-34 91,-48l-1 89 75 -30c22,56 1,60 72,40 22,-67 -19,-64 2,-120 11,122 43,89 -25,186 -40,57 -38,126 -77,167 -114,120 -196,17 -461,112 -51,18 -39,7 -59,64 -23,66 -39,107 -65,166 -49,112 -109,214 -160,317l167 -66c16,-60 33,-108 69,-163 38,-60 37,-128 68,-203 27,-5 78,-11 107,12 -76,-29 -81,-10 -82,68 41,-14 46,-28 80,-19l7 71 102 -32 -14 92 76 -21 17 59c78,-10 49,-8 68,-69 7,112 -24,78 -74,139 -29,35 -48,103 -87,133 -113,87 -228,-2 -359,8 -221,16 -166,20 -265,174 -47,73 -147,197 -174,265l168 -5c43,-98 50,-111 123,-192 43,-47 74,-188 121,-156zm-1108 -4267c84,28 123,-48 198,-147 29,-38 50,-61 83,-100 33,-39 48,-62 21,-125 56,33 71,47 118,90l-29 354c37,-34 67,-74 103,-118 39,-48 72,-76 35,-139 41,11 64,48 109,70 -2,2 -6,2 -8,3l-24 6c-39,10 -35,3 -80,55 -68,79 -189,249 -253,298l36 -484 -73 79c-88,111 -171,167 -122,253 -29,-12 -96,-62 -115,-97zm-3875 -281c19,-28 69,-74 107,-90 -28,69 -3,82 35,128l162 192c18,20 22,25 39,46l37 58 -473 -126c110,130 187,287 292,252 -20,33 -79,83 -113,97 36,-85 5,-99 -105,-223 -105,-118 -116,-177 -199,-145 9,-27 8,-20 34,-45 78,-75 85,-53 156,-33 81,23 178,58 257,71 -21,-37 -66,-87 -96,-122 -45,-52 -55,-82 -132,-60zm3473 60c3,-2 6,-4 8,-5 192,-105 161,-124 324,-249 39,-29 65,-57 103,-83 0,136 -97,436 -51,545l-171 -98c46,-23 59,45 74,-113l-129 -68c-75,57 -81,46 -40,131l-119 -60zm-3275 -199c18,-30 145,-107 186,-114 -51,40 -35,57 3,120l147 244c14,22 23,41 46,50 29,12 37,0 51,6l-183 104c37,-52 28,-65 -9,-125l-137 -228c-29,-48 -37,-81 -103,-56zm2538 -60c92,-55 278,-324 338,-422 47,81 14,413 86,541l-180 -44c31,-23 41,-20 45,-61 10,-95 -53,-101 -147,-112 -99,114 -16,104 -10,140l-131 -42zm-2043 161c1,27 -3,66 10,89 12,20 45,39 68,35l-126 50c67,-145 -7,-375 4,-547 65,59 122,136 189,192l148 144c13,11 13,10 29,19 3,2 15,8 17,9l-166 82c23,-30 20,-14 31,-52l-71 -76 -134 54zm2925 -242c4,-98 6,-109 -74,-142 -30,35 -81,182 -101,233 -67,168 -85,160 -24,211 -69,-3 -137,-52 -202,-71 34,-17 56,13 92,-78l91 -227c40,-98 49,-91 24,-114 -86,-41 -94,22 -145,51l47 -124 347 135 -39 103c-9,15 -8,13 -17,23zm-2437 -332l23 125c-7,-7 -10,-12 -17,-20 -73,-77 -157,-51 -165,8 -14,97 134,94 206,123 81,32 132,135 81,223 -18,32 -57,62 -104,67 -109,12 -39,-22 -118,37l-52 -174c11,10 8,7 20,20 2,3 9,11 11,14 100,122 220,111 201,-35 -69,-52 -63,-41 -151,-64 -203,-53 -218,-306 46,-286l20 -38zm369 248c36,33 34,70 83,108 40,31 112,48 140,-9 54,-111 -124,-136 -190,-185 -85,-64 -90,-222 18,-255 50,-15 48,-4 90,1 101,12 24,-8 59,-13l20 55c6,32 9,56 12,90 -31,-32 -36,-71 -79,-96 -47,-27 -86,-10 -117,10 -38,175 208,99 252,260 23,85 -16,159 -67,182 -54,24 -66,12 -122,6 -65,-7 -30,4 -72,24l-27 -178zm777 120c35,-25 57,1 69,-94 5,-45 9,-96 14,-142 24,-228 41,-191 -30,-257l213 29c-41,19 -53,3 -65,66 -6,30 -8,84 -12,118 -9,81 -28,175 -19,256 160,98 192,-86 230,-105l-31 168 -369 -38zm-364 -468l-49 -29 341 0 2 146c-61,-73 1,-117 -190,-118l0 201c93,-13 59,-33 92,-108 24,46 11,179 7,248 -39,-56 -11,-94 -100,-111l9 201c45,10 91,12 132,-12 16,-9 31,-24 43,-43 8,-12 10,-18 18,-33 2,-3 9,-12 10,-18 1,-5 3,-6 8,-9l-19 149 -356 0c3,-2 6,-3 8,-4l35 -27c27,-41 13,-385 9,-434zm-1475 -219c-648,280 -1340,933 -1704,1531 -61,100 -109,187 -170,293 -218,378 -378,902 -462,1390 -96,557 -67,1158 50,1698 127,585 382,1155 704,1600 134,186 366,471 535,623l120 111c101,93 421,329 530,396 2511,1554 5590,-22 6120,-2857 213,-1137 -10,-2180 -485,-3046 -205,-373 -413,-638 -696,-926 -41,-42 -74,-72 -115,-116 -42,-45 -78,-68 -123,-109 -222,-203 -733,-548 -993,-634 -67,-43 -269,-111 -362,-144 -910,-320 -2133,-245 -2948,189z"/>
  <path class="fil1" d="M11343 13000l-8651 0 -2692 -8409 544 -368 1 -1c2037,-1335 4060,-2690 6097,-4024 80,-52 154,-111 240,-153l91 -45 91 44c32,15 66,39 96,58 58,37 116,74 174,112 194,126 387,253 580,379 571,375 1141,752 1711,1129 839,555 1677,1111 2516,1667l1467 971c77,51 190,111 249,179l66 75 -18 99c-32,176 -105,356 -158,527l-1718 5586c-104,337 -205,675 -308,1012 -68,222 -136,444 -205,666 -25,79 -49,158 -75,236 -14,43 -28,91 -46,133l-53 128z"/>
  <path class="fil0" d="M11204 12793c49,-119 575,-1858 627,-2028l1718 -5586c44,-143 127,-366 152,-503 -30,-34 -158,-110 -208,-143l-1467 -971c-291,-190 -4938,-3276 -5052,-3331 -70,35 -155,99 -218,141 -2037,1335 -4060,2689 -6097,4024l-414 280 2599 8117 8361 0z"/>
  <path class="fil1" d="M8564 2798c261,86 771,431 993,634 45,41 81,64 123,109 41,44 74,74 115,116 283,287 492,553 696,926 476,867 698,1909 485,3046 -530,2835 -3609,4410 -6120,2857 -109,-68 -429,-303 -530,-396l-120 -111c-169,-153 -401,-437 -535,-623 -322,-445 -577,-1016 -704,-1600 -117,-540 -146,-1141 -50,-1698 84,-488 244,-1012 462,-1390 61,-106 109,-193 170,-293 364,-597 1056,-1251 1704,-1531l-194 -476c-361,125 -1019,549 -1318,833 -165,157 -191,170 -365,355 -24,25 -47,39 -69,64 -138,156 -330,398 -443,569 -248,374 -426,694 -591,1140 -683,1846 -363,3823 833,5358 43,55 82,100 126,154 119,146 362,390 502,510 914,778 2005,1233 3262,1219 953,-11 1888,-313 2625,-819l568 -444c27,-26 51,-42 80,-67 52,-44 88,-98 138,-142 304,-270 694,-820 870,-1154 273,-520 487,-1038 601,-1703 281,-1639 -190,-3317 -1146,-4436 -28,-33 -36,-46 -60,-75 -25,-30 -45,-45 -70,-76l-288 -297c-304,-271 -432,-399 -807,-631 -167,-103 -589,-347 -771,-392l-173 464z"/>
  <path class="fil2" d="M4770 9601c-40,16 -139,-26 -119,80 11,60 84,88 160,62 138,-47 60,-220 -47,-262 -287,-113 -387,412 -33,411 300,-1 359,-396 116,-505 -118,-53 -288,-41 -371,31 -77,66 -38,15 -168,64 -67,25 -114,58 -135,106 82,-18 105,-35 201,-19 -2,217 -10,457 316,525 253,53 530,-22 763,-76 1265,-295 1780,-285 3040,18 223,54 520,147 753,80 225,-65 343,-269 280,-550 96,3 141,30 221,45 -81,-121 -140,-93 -275,-153 -38,-17 -24,-21 -60,-50 -64,-52 -162,-79 -250,-70 -300,30 -328,399 -145,501 239,133 489,-184 275,-360 -98,-80 -256,-26 -278,88 -34,169 118,220 215,120 21,-133 -59,-101 -117,-134 33,-59 156,6 153,109 -3,86 -102,128 -191,98 -155,-53 -126,-348 109,-348 190,1 291,234 169,383 -39,49 -121,102 -218,103 -175,2 -357,-229 -414,-395 -24,-72 -6,-56 -86,-72 -1218,-242 -1531,-386 -2824,-117 -175,36 -353,81 -532,114 -70,13 -61,9 -88,70 -81,181 -152,220 -198,289 -79,119 -287,200 -444,71 -139,-114 -80,-370 90,-412 213,-52 370,199 221,307 -65,47 -184,37 -223,-31 -22,-38 -24,-91 7,-124 15,-15 97,-61 129,3z"/>
  <path class="fil3" d="M3856 6527c-2,2 -6,6 -7,7l-90 100 -5 -70 102 -37zm-131 144c-50,-31 -62,-60 -94,-116l-86 -132c157,67 155,48 166,111 2,11 4,32 5,44 3,33 5,61 9,93zm-190 -947c63,26 125,77 185,108l-14 189c-47,-40 -51,-87 -78,-158 -14,-38 -21,-55 -40,-81 -9,-12 -17,-21 -28,-33 -2,-2 -10,-10 -12,-12l-12 -13zm221 -148c-30,-34 -41,-155 -89,-282 20,11 10,5 26,17l104 97 -41 168zm-221 148c-121,-39 -107,-72 -179,-131 -15,302 153,342 345,452l-5 182c-18,-15 -9,-4 -27,-27 -13,-17 -7,-9 -18,-31 -35,-68 -51,-137 -105,-187 -37,-34 -78,-41 -127,-68 -59,-33 -56,-56 -98,-87 -2,294 171,339 376,430l8 206c-143,-148 -26,-195 -272,-305 -65,-29 -71,-52 -114,-89 -1,86 17,157 58,218 18,27 34,47 63,72l87 62c-121,-26 -140,-48 -222,-103 12,178 117,284 262,330 83,27 147,24 165,77l22 120c-55,-50 -117,-153 -177,-185 -42,-22 -95,-23 -144,-37 -64,-19 -81,-44 -125,-66 49,174 118,260 284,296l124 22c58,17 44,23 76,162 -270,-290 -259,-90 -447,-235 52,273 296,273 462,290l36 124c-82,-24 -126,-105 -201,-131 -116,-40 -149,1 -263,-77 15,95 91,194 147,231 105,68 202,30 330,36l74 195c-84,-33 -116,-101 -193,-123 -136,-39 -131,-6 -261,-74 77,345 383,256 477,261l74 153c-52,-24 -173,-104 -211,-113 -48,-12 -109,-6 -160,-12 -64,-8 -80,-29 -125,-42 157,315 283,246 521,208l83 181c-77,-25 -162,-92 -226,-109 -124,-34 -164,29 -297,-45 20,78 120,182 190,211 121,50 243,-13 351,-31 32,65 78,131 107,196 -289,-121 -86,-107 -379,-120 -59,-3 -95,-24 -136,-40 87,217 259,286 527,187 34,42 76,101 97,153 -59,-21 -175,-85 -222,-92 -127,-18 -54,35 -281,-19 138,298 432,158 527,148 27,27 122,182 143,219 -88,-18 -142,-105 -226,-135 -72,-26 -209,16 -333,-11 98,165 328,216 579,172 33,49 81,116 106,174 -95,-24 -146,-115 -244,-128 -63,-8 -108,11 -166,20 -75,11 -88,-8 -144,-11 33,26 48,56 94,88 163,117 318,95 489,64 38,70 119,168 149,244 -222,-67 -69,-196 -433,-180 -102,5 -105,-10 -179,-28 124,202 310,253 631,241 50,52 221,354 161,464 -1,45 -8,43 13,71 133,-236 -145,-486 -129,-574 28,-158 273,-219 63,-551l-93 217c-51,104 -38,141 -30,263 -110,-146 -128,-153 -29,-309 75,-120 125,-248 9,-360l-89 182c-49,83 -56,98 -62,219 -107,-161 -70,-117 22,-282 72,-128 76,-221 -18,-325 -32,56 -47,118 -82,176 -39,65 -64,111 -64,206l-84 -122c86,-117 289,-302 134,-449 -65,122 -169,231 -187,360 -32,-40 -55,-79 -78,-128 42,-47 122,-121 157,-171 56,-82 43,-182 -14,-246 -66,153 -146,157 -199,323 -27,-33 -54,-74 -59,-118 113,-118 283,-138 216,-387 -32,18 -98,104 -145,142 -80,66 -84,65 -115,181l-45 -92c108,-111 294,-172 210,-402 -44,36 -73,83 -133,132 -76,63 -79,77 -134,138l-40 -76c98,-137 299,-128 232,-413l-142 132c-61,45 -109,81 -135,160l-26 -51c-8,-22 -11,-38 -13,-65 153,-82 324,-124 293,-360 -105,97 -270,131 -329,265l-26 -84c134,-137 327,-64 319,-371 -71,49 -105,75 -192,116 -76,36 -124,71 -150,158l-31 -115c169,-86 352,-84 347,-335 -55,40 -112,68 -191,98 -63,24 -112,53 -151,105l-18 24c-1,2 -4,6 -7,8l-14 -103c184,-68 361,-66 369,-302 -68,38 -157,80 -251,91 131,-58 229,-126 229,-310 -70,57 -100,73 -205,110 -137,49 -101,69 -173,159l-4 -139c204,-50 395,-113 418,-339 -87,53 -108,63 -229,99 -153,46 -112,90 -188,153l-1 -146c230,-45 407,-75 456,-293 -108,48 -295,65 -372,132 -23,20 -22,20 -40,44l-42 49 13 -149c198,-58 403,-33 465,-281 -169,61 -323,48 -410,151l-45 49c3,-47 6,-116 28,-149 68,-52 237,-25 321,-58 77,-30 171,-117 188,-198 -109,47 -163,34 -289,49 -78,10 -114,38 -166,88l-39 37c-2,1 -5,4 -7,7l27 -135c207,-56 436,11 527,-249 -192,51 -182,25 -311,51 -89,18 -159,89 -201,144l41 -160c213,-35 417,-16 538,-227 -44,5 -86,19 -132,23 -53,5 -105,0 -157,5 -64,6 -115,30 -159,70 -34,30 -10,19 -53,41 12,-67 40,-143 77,-187 110,-6 219,23 324,-6 110,-30 135,-87 196,-137 -60,-4 -235,-14 -287,-11 -96,6 -147,61 -210,95 62,-165 66,-119 182,-224 74,-67 102,-178 117,-308 -122,34 -225,99 -258,204 -22,69 -8,146 -25,207 -5,18 -64,131 -84,145 -28,-199 38,-381 -137,-523 -81,142 -79,279 18,406 25,33 109,116 110,151 1,27 -60,170 -78,199 -58,-227 25,-221 -122,-431 -32,-45 -35,-71 -60,-115 -112,209 10,433 180,566l-56 184c-50,-76 -22,-196 -77,-281 -48,-74 -98,-120 -149,-204 -80,131 -8,288 49,377 -73,-42 -91,-99 -141,-157 -69,437 241,436 263,536l-29 168c-66,-49 -61,-195 -115,-256 -49,-54 -112,-69 -156,-124 -25,-32 -12,-34 -47,-51 -6,139 16,230 103,324 2,3 9,10 11,13 12,14 8,8 16,21z"/>
  <path class="fil4" d="M9364 8153c123,33 134,2 204,95 -76,147 -206,300 -261,404 -35,-26 -26,-27 -49,-63 30,-72 70,-83 82,-195 14,-131 51,-90 25,-241zm970 -2172c27,-67 136,-62 135,-16 8,1 25,2 30,3 10,1 23,2 32,4 53,16 112,71 94,132 -16,53 8,56 -45,154 -22,70 1,109 -46,162l-81 71c-32,32 -110,6 -184,28 -16,5 -127,60 -140,68 -50,32 -41,84 -47,161 -10,117 -23,253 -44,363 60,-9 111,-56 155,-81 -23,-117 -20,-101 3,-218 17,-88 -17,-130 3,-214 5,3 9,5 12,7 20,-29 55,-50 92,-59 12,-3 23,-2 34,0 2,1 12,3 16,4 36,-63 143,-43 136,2 8,3 24,6 29,7 10,2 23,5 32,9 46,21 73,76 56,130l1 0c-8,59 -46,78 -60,152 -49,261 -189,150 -382,239 -179,83 -123,36 -171,245 -27,120 -64,215 -96,325 64,-16 94,-33 143,-58 11,-118 -6,-98 34,-210 26,-72 8,-127 23,-185 -1,-2 -1,-4 0,-6 1,-3 3,-6 5,-9 1,-4 3,-7 4,-11l2 1c20,-28 54,-48 91,-57 12,-3 23,-2 34,0 2,1 12,3 16,4 36,-63 143,-43 136,2 8,3 24,6 29,7 10,2 23,5 32,9 50,23 78,86 51,143 0,18 -11,70 -44,117 -40,57 -38,126 -77,167 -114,120 -196,17 -461,112 -51,18 -39,7 -59,64 -23,66 -39,107 -65,166 -49,112 -109,214 -160,317l167 -66c16,-60 33,-108 69,-163 38,-60 37,-128 68,-203l9 -1c27,-24 66,-37 105,-37 12,0 23,3 33,8 2,1 11,6 14,7 50,-52 149,-8 132,34 7,4 22,11 27,13 9,4 21,10 29,16 43,34 55,102 16,151 -1,2 -3,4 -4,5 -2,70 -31,50 -74,104 -29,35 -48,103 -87,133 -113,87 -228,-2 -359,8 -221,16 -166,20 -265,174 -47,73 -147,197 -174,265l168 -5c43,-98 50,-111 123,-192 40,-44 70,-171 112,-160 31,-14 70,-15 106,-5 12,3 21,9 30,17 2,2 9,9 12,11 62,-37 145,32 118,68 5,6 19,17 22,20 7,7 17,15 23,23 33,44 26,113 -25,150 -2,2 -4,3 -6,5l-1 7c-13,16 -77,50 -100,70 -29,25 -43,58 -76,83 -74,56 -176,23 -251,-17 -77,-41 -178,-49 -280,-51 -36,68 -118,172 -164,239 -54,80 -105,154 -150,242l156 -1c39,-41 15,-60 67,-119 27,-30 67,-66 86,-97 24,-38 34,-95 64,-122 15,-14 24,-18 29,-17 32,-16 73,-18 111,-8 12,3 21,9 30,17 2,2 9,9 12,11 62,-37 145,32 118,68 5,6 19,17 22,20 7,7 17,15 23,23 33,44 26,113 -25,150 -3,2 -7,5 -10,8l2 2c-21,28 -61,44 -94,69 -57,42 -65,105 -155,119 -177,27 -130,-98 -452,-96 -55,63 -103,175 -96,282 -10,66 7,27 -26,42 -48,-119 48,-267 86,-355 -40,-69 -49,-89 -125,-120 -53,-22 -102,-56 -129,-102 -43,-71 -16,-129 -26,-204 -13,-93 -39,-76 3,-133 0,-2 0,-5 1,-7 2,-2 6,-6 11,-10l6 -8c-1,2 -1,3 -2,5 12,-9 28,-18 34,-22 13,-7 39,-22 53,-23 11,0 34,0 45,-2 52,-60 81,-38 144,-8 16,7 19,14 21,30 1,12 34,17 43,18 23,4 97,63 93,91 6,8 4,11 -3,51 -11,64 -46,87 -67,155 -37,119 -71,106 -114,177 14,38 10,44 38,72 49,-70 100,-153 147,-228 48,-76 104,-149 153,-220 -10,-20 -38,-57 -55,-68 -26,-18 -51,-16 -85,-24 -179,-43 -152,-127 -196,-269 -35,-112 -56,-34 -21,-147 -3,-3 -5,-8 -3,-12 4,-9 36,-35 44,-41 11,-9 35,-28 49,-30 10,-2 33,-5 44,-8 43,-67 74,-49 140,-27 16,5 21,12 25,28 3,12 35,12 44,13 8,0 24,7 42,17 -79,-59 -51,-82 -97,-204 -37,-96 -83,-90 -2,-207 0,-1 0,-1 1,-2 1,-2 3,-4 5,-7 5,-7 10,-14 16,-22 -2,4 -4,8 -6,12 9,-8 19,-16 24,-20 10,-8 31,-24 44,-26 9,-1 30,-4 39,-7 38,-58 66,-42 124,-24 14,5 18,10 22,24 3,11 31,11 39,11 21,1 95,45 91,70 31,11 36,34 31,88 -4,49 -22,66 -26,123 -10,142 -25,123 -70,219l45 61c2,-2 5,-4 6,-6l37 -48c12,-22 19,-36 30,-56 22,-42 43,-77 64,-119 37,-76 78,-173 105,-259 -64,-69 -61,-60 -178,-76 -197,-26 -148,-155 -230,-270 -45,-63 -38,-78 -7,-132 0,-1 0,-3 0,-4 2,-8 26,-35 33,-42 9,-9 27,-29 39,-33 9,-3 29,-9 37,-13 29,-64 58,-52 119,-43 15,2 20,7 25,20 4,10 33,5 40,4 21,-2 102,30 101,55 94,19 36,130 35,216 -1,121 -12,131 -58,218l58 61c52,-110 139,-376 147,-522 -83,-10 -95,-35 -195,-49 -182,-25 -147,-138 -211,-254 -60,-108 -43,-47 -18,-158 15,50 -37,36 45,82 31,-14 16,-20 50,-47l47 47 19 -44c8,-22 -4,-9 19,-39 68,26 27,34 85,58l37 -61c35,16 27,25 61,49 5,-18 5,-28 10,-49 3,-16 3,-16 7,-28l4 -10c-2,2 -4,2 -7,2 -4,-1 -7,-4 -7,-8 -3,-7 -31,-21 -37,-24 -9,-4 -33,-14 -43,-13 -18,2 -47,6 -56,-14 -3,-7 -3,-9 -12,-10 -17,-3 -52,-11 -68,-4 -15,6 -25,25 -31,39 -3,8 -37,17 -45,19 -11,4 -54,50 -59,62 -1,4 -6,6 -10,5 -4,-1 -7,-6 -6,-10 2,-8 26,-34 32,-41 8,-9 26,-28 38,-32 9,-3 28,-8 36,-13 28,-62 57,-51 115,-42 15,2 19,7 25,20 4,10 32,5 39,4 20,-2 99,29 98,53 54,81 12,124 12,229 1,131 -39,133 -49,220 26,11 50,20 91,25l55 -536c-36,-16 -72,-35 -98,-48 -52,-25 -64,-5 -132,-12 -148,-16 -135,-136 -206,-223 -21,-26 -49,-44 -43,-91 7,-48 22,-101 54,-136 7,-8 22,-24 32,-27 2,-1 4,-1 6,-2 3,-3 5,-6 8,-10 -1,3 -3,6 -4,9 7,-2 16,-5 21,-8 24,-53 48,-43 98,-36 12,2 16,6 21,17 4,8 27,4 33,4 17,-2 84,24 83,45 67,11 55,96 55,163 0,143 21,118 -21,264 36,25 47,32 96,50l1 -489c-9,-10 -128,-86 -133,-89 -58,-26 -124,3 -180,-37 -45,-32 -60,-75 -83,-136 -26,-71 -56,-73 -66,-133 -1,-1 -2,-3 -3,-4 0,-2 0,-5 1,-8 0,-4 -1,-7 -1,-11l3 2c3,-10 6,-20 8,-25 4,-10 11,-31 19,-38 6,-5 19,-16 24,-22 1,-58 27,-59 76,-72 12,-3 17,-1 26,7 7,6 27,-7 32,-10 19,-11 73,-15 94,15 101,40 72,-37 82,186 5,131 14,113 -20,241 40,35 58,55 121,76 -3,-178 -27,-350 -55,-521 -45,-16 -81,-24 -118,-41 -60,-28 -51,-26 -122,-11l0 21c-98,-12 -163,-45 -216,-134 -55,-91 -146,-136 -105,-251 4,-10 11,-31 19,-38 6,-5 19,-16 24,-22 1,-58 27,-59 76,-72 12,-3 17,-1 26,7 7,6 27,-7 32,-10 15,-9 89,-11 95,9 0,1 0,1 0,2l49 -3c55,100 30,103 65,205 36,106 18,121 23,233 50,25 78,45 141,51 -19,-94 -108,-504 -230,-523 -163,-26 -139,-44 -216,-162 -26,-40 -74,-67 -84,-100 -26,-64 -15,-136 15,-191 7,-19 20,-29 41,-28 1,0 2,0 3,-1 5,-3 10,-16 12,-21 12,-24 29,-29 54,-20 2,1 12,4 15,4 0,-1 1,-3 1,-4 2,-10 7,-15 18,-15 13,0 32,4 44,8 184,21 146,23 187,209 46,181 65,87 21,287 -19,84 54,189 82,269 31,91 49,190 78,275 31,-32 42,-64 59,-108 -19,-36 -46,-53 -70,-100 -56,-113 2,-64 -105,-225 -35,-53 -22,-56 -4,-101l1 3c2,-38 11,-84 39,-107 9,-7 20,-12 31,-14 2,0 13,-2 16,-3 7,-72 112,-98 124,-55 8,-1 24,-5 29,-6 10,-2 22,-5 32,-5 55,0 128,36 128,99 0,5 1,9 1,14l1 0c0,3 0,5 0,8 0,2 0,5 0,7 0,1 0,2 0,2 0,215 114,272 -62,414 -36,29 -91,52 -113,81 -87,112 -100,152 -81,276 19,119 28,237 33,357 48,-29 67,-66 110,-92 -31,-115 -35,-73 -35,-224 0,-82 -90,-222 22,-287 10,-6 21,-9 33,-10 2,0 13,0 16,-1 17,-70 124,-82 131,-37 8,0 25,-2 30,-2 10,-1 23,-2 33,-1 55,8 122,53 113,116 -1,9 0,19 -2,28l0 1c10,78 -21,121 -22,206 -3,210 -174,160 -282,232 -37,25 -122,85 -136,121l-10 561c63,-26 94,-40 131,-87 -44,-72 -19,-125 -9,-206 11,-88 -27,-126 -6,-209 3,1 5,2 7,3 13,-34 34,-70 65,-82 11,-4 22,-5 34,-4 2,0 13,2 16,1zm278 118c16,-52 -40,-101 -85,-114 -8,-3 -21,-3 -30,-4 -9,-1 -17,-1 -26,-2 -6,-1 -19,-2 -17,-11 6,-30 -86,-37 -108,20 -1,2 -2,3 -3,5 -6,5 -15,3 -22,2 -9,-1 -18,-1 -26,1 -31,8 -51,45 -64,78 18,12 12,22 24,65 34,-24 24,-31 64,-49l32 62 40 -32c28,-24 3,-12 50,-29l20 82c32,-20 21,-21 66,-38l27 46c86,-44 42,-28 58,-80zm-22 603c22,-49 -3,-104 -45,-123 -8,-4 -20,-6 -29,-8 -8,-2 -17,-4 -25,-6 -6,-2 -18,-5 -15,-14 10,-29 -80,-48 -110,5 -1,2 -2,3 -4,4 -6,4 -15,1 -22,-1 -9,-2 -17,-4 -26,-3 -36,5 -71,27 -90,55 12,11 3,18 20,64l59 -50c11,17 24,51 36,67 34,-24 44,-44 90,-56l9 86c41,-17 20,-17 64,-43l32 54c26,-14 35,-23 55,-31zm-108 590c1,-5 3,-9 5,-14 23,-50 -2,-105 -44,-125 -8,-4 -20,-6 -29,-8 -8,-2 -17,-4 -25,-6 -6,-2 -18,-5 -15,-14 10,-29 -80,-48 -110,5 -1,2 -2,3 -4,4 -6,4 -15,1 -22,-1 -9,-2 -17,-4 -26,-3 -35,4 -69,26 -88,53 23,17 3,21 28,68 14,-14 34,-29 56,-41l34 72c41,-22 38,-34 91,-48l-1 89 75 -30c22,56 -13,57 59,37l13 -38 4 -2zm-197 719c-2,1 -5,1 -8,-1 -3,-2 -4,-7 -1,-10 6,-7 10,-16 16,-24l1 -1c1,-6 3,-12 5,-20 0,4 0,8 1,12 26,-42 14,-95 -20,-122 -7,-5 -18,-11 -26,-14 -8,-4 -16,-7 -23,-11 -6,-3 -17,-9 -12,-17 16,-26 -67,-66 -108,-21 -1,1 -3,3 -5,3 -7,2 -15,-3 -21,-6 -8,-4 -16,-8 -25,-9 -28,-3 -58,4 -81,18 16,-2 -10,4 -26,20 -1,1 -2,2 -3,3 -12,14 -15,34 14,62 41,-14 46,-28 80,-19l7 71 102 -32 -14 92 76 -21 17 59c36,-5 50,-7 55,-14zm-274 587c3,-3 7,-6 10,-9 44,-32 50,-93 22,-131 -5,-7 -15,-15 -21,-21 -6,-6 -13,-11 -19,-17 -5,-4 -14,-13 -7,-19 23,-21 -47,-81 -99,-49 -2,1 -4,2 -5,2 -8,0 -14,-7 -19,-12 -7,-6 -13,-12 -22,-15 -32,-13 -72,-11 -101,2l-18 63c49,-5 37,-16 80,-3l-4 70 105 -5 -35 84c6,-1 38,-6 40,-6l44 64 49 1zm-344 512c7,-5 13,-12 20,-17 44,-32 50,-93 22,-131 -5,-7 -15,-15 -21,-21 -6,-6 -13,-11 -19,-17 -5,-4 -14,-13 -7,-19 23,-21 -47,-81 -99,-49 -2,1 -4,2 -5,2 -8,1 -14,-7 -19,-12 -7,-6 -13,-12 -22,-15 -34,-14 -77,-10 -107,5 0,4 -1,7 -1,7 0,1 -13,54 -14,60l83 -9 -14 77 97 -6c7,13 5,-1 3,20l-25 63 78 -2 6 62 46 1zm872 -3660c-3,-1 -5,-4 -5,-8 1,-9 0,-19 2,-28 8,-54 -55,-93 -101,-100 -9,-1 -21,0 -30,1 -9,1 -17,1 -26,2 -6,0 -19,1 -19,-9 1,-31 -91,-23 -104,36 0,2 -1,4 -3,5 -5,6 -15,5 -21,5 -9,0 -18,1 -26,5 -27,12 -41,47 -49,79 20,12 24,36 43,61l37 -58c32,18 10,0 37,31 11,12 5,10 18,26 42,-31 33,-46 73,-67l29 56c1,2 3,11 4,10 1,-2 2,7 4,10 20,-19 25,-26 49,-45 3,2 6,5 7,6 18,15 26,27 51,31 25,-26 23,-29 31,-52zm-233 -635c-1,-7 -2,-14 -2,-20 0,-55 -67,-85 -114,-85 -9,0 -21,3 -29,5 -8,2 -17,4 -25,5 -6,1 -19,4 -20,-6 -3,-30 -93,-10 -98,50 0,2 -1,4 -2,5 -4,6 -14,7 -20,8 -9,2 -17,4 -25,9 -36,23 -40,89 -40,126 0,2 -1,4 -3,5 6,19 4,10 40,42l31 -68c41,14 31,17 61,39 23,-28 27,-57 53,-93 12,15 39,47 57,64 17,-19 24,-39 40,-63 18,8 36,21 59,29 23,-39 14,-41 38,-53zm-719 2900c-5,-9 -27,-25 -33,-29 -8,-6 -31,-19 -41,-20 -18,-1 -49,-1 -55,-23 -2,-8 -2,-9 -11,-12 -17,-6 -51,-19 -69,-16 -17,3 -29,21 -38,35 -5,7 -40,11 -49,12 -12,2 -63,42 -70,53 -2,4 -7,5 -11,4 -1,0 -1,-1 -2,-1 -12,23 -20,42 -23,82 35,13 33,24 62,14l36 -26c1,-4 5,-4 10,-8l57 50 26 -84c47,15 58,41 93,69 18,-30 23,-44 56,-65 30,25 26,36 58,58 17,-49 35,-61 -9,-94 5,1 9,1 13,2zm-485 957c-7,-11 -26,-30 -31,-35 -9,-8 -32,-27 -43,-29 -21,-4 -55,-9 -58,-35 -1,-9 -1,-11 -10,-15 -19,-9 -54,-30 -75,-28 -19,1 -36,20 -48,33 -6,7 -47,6 -57,6 -14,0 -78,38 -88,49 -1,2 -3,3 -6,4 1,21 17,32 33,52 35,-12 31,-17 61,-34 23,22 31,40 53,64 21,-46 16,-50 59,-72l59 85c28,-15 13,-10 32,-25 2,-1 5,-4 7,-6l22 -15c32,31 19,34 49,62 18,-17 12,-9 26,-34l15 -29zm236 -530c4,3 8,7 12,10l0 -3c-4,-3 -8,-5 -12,-8zm9 36c-6,-10 -31,-29 -37,-33 -10,-7 -35,-22 -46,-23 -21,-1 -55,-1 -62,-27 -2,-9 -2,-11 -12,-14 -19,-6 -57,-22 -77,-18 -19,4 -33,25 -42,40 -5,8 -45,13 -55,14 -13,2 -71,49 -79,61 -1,2 -2,3 -4,4 4,30 -6,23 44,62 37,-21 15,-21 59,-43l55 56 32 -82c50,18 43,39 85,71 40,-28 15,-32 64,-58l46 58c19,-18 27,-42 31,-67zm456 -981c-2,2 -4,2 -7,2 -4,-1 -7,-4 -7,-9 -3,-7 -32,-22 -39,-25 -9,-4 -34,-14 -44,-13 -18,2 -49,7 -58,-14 -3,-7 -3,-9 -13,-10 -18,-3 -53,-11 -70,-5 -16,6 -25,26 -32,40 -3,8 -38,17 -46,20 -11,4 -55,52 -61,63 -1,4 -6,6 -10,5 -1,0 -2,-1 -3,-2 -14,42 -1,36 35,69 36,-12 29,-25 63,-47 25,17 34,26 65,42l20 -83c68,19 38,39 98,62 19,-25 19,-37 41,-66 43,21 44,51 69,44 23,-43 21,-57 -2,-75zm124 -1116c-1,0 -1,0 -2,0 -2,0 -4,-2 -5,-4l-9 -5c3,0 5,0 7,0 -5,-6 -26,-17 -31,-19 -8,-4 -28,-12 -36,-11 -15,2 -40,5 -48,-12 -3,-6 -3,-7 -10,-8 -15,-2 -44,-9 -58,-4 -13,5 -21,21 -26,33 -3,6 -31,14 -38,16 -1,0 -3,1 -5,3 -6,10 -11,12 -15,13 -41,41 -71,72 -49,141 69,19 45,11 77,-37 33,14 37,21 68,34l9 -84c46,13 44,28 85,50 37,-44 10,-13 32,-65 52,19 28,29 74,35l4 -66 -23 -12zm-54 -577c-2,0 -4,-2 -5,-4 -5,-5 -31,-6 -37,-6 -8,0 -30,0 -37,4 -13,8 -35,21 -48,8 -5,-5 -6,-6 -13,-4 -14,4 -44,9 -55,20 -10,10 -11,28 -11,41 0,7 -23,25 -29,30 -6,5 -18,39 -23,57l48 22 20 -53c37,13 35,17 63,30l13 -79c33,14 49,31 75,53l32 -67c39,19 16,23 58,33l1 -62c-37,-22 -36,-4 -51,-22zm-172 -559c-9,-3 -28,-4 -33,-4 -8,0 -30,0 -37,4 -13,8 -35,21 -48,8 -5,-5 -6,-6 -13,-4 -14,4 -44,9 -55,20 -10,10 -11,28 -11,41 0,7 -23,25 -29,30 -19,17 -54,120 14,119 52,-1 9,-4 48,-54l58 29 -8 -92c48,6 52,21 95,35l11 -74c45,10 26,10 71,29 -3,-32 4,-44 -18,-67 -19,-21 -37,-3 -43,-18 -1,-4 -6,-1 -9,-1l8 0zm-76 -562c-1,0 -3,0 -3,1 0,1 -1,2 -1,3 -4,21 -18,17 -35,11 -50,-18 -31,43 -65,42 -45,-1 -76,139 -34,176 52,46 51,-19 62,-50 33,10 43,14 70,31l-10 -94c60,4 48,19 100,34l15 -81 67 36 -6 -78c-9,-15 -152,-35 -160,-31z"/>
  <path class="fil3" d="M5061 2367l194 476c815,-434 2038,-508 2948,-189 93,32 295,101 362,144l173 -464c-125,-108 -907,-281 -1168,-314 -87,-11 -401,-27 -454,-47l-17 -231c185,-28 283,-75 437,-121 0,-121 44,-205 -186,-285 -133,-46 -287,-63 -438,-62 -166,2 -474,35 -603,141 -66,54 -49,90 -49,188 49,66 332,126 432,137l-7 233c-52,25 -358,43 -444,56 -333,50 -919,192 -1181,338z"/>
  <path class="fil5" d="M4770 9601c-32,-65 -114,-19 -129,-3 -32,33 -29,86 -7,124 39,68 158,78 223,31 149,-107 -8,-359 -221,-307 -171,42 -229,298 -90,412 157,129 365,48 444,-71 46,-69 117,-109 198,-289 27,-60 18,-57 88,-70 179,-33 358,-78 532,-114 1293,-269 1606,-125 2824,117 81,16 62,0 86,72 56,166 239,397 414,395 97,-1 179,-54 218,-103 121,-150 21,-383 -169,-383 -235,-1 -264,295 -109,348 89,30 188,-12 191,-98 4,-103 -120,-168 -153,-109 58,34 138,1 117,134 -97,101 -249,49 -215,-120 23,-114 180,-168 278,-88 215,175 -36,492 -275,360 -184,-102 -156,-471 145,-501 88,-9 186,18 250,70 36,29 22,33 60,50 135,60 194,32 275,153 -80,-15 -125,-43 -221,-45 64,281 -55,485 -280,550 -233,67 -530,-27 -753,-80 -1260,-303 -1775,-313 -3040,-18 -234,55 -510,129 -763,76 -326,-68 -318,-308 -316,-525 -96,-16 -119,1 -201,19 22,-48 68,-81 135,-106 131,-48 92,3 168,-64 84,-72 253,-84 371,-31 243,109 184,504 -116,505 -354,1 -254,-524 33,-411 107,42 185,215 47,262 -76,26 -149,-2 -160,-62 -20,-106 79,-64 119,-80zm2766 -483l12 79c-39,-4 -71,-4 -95,-22l-160 -15c-44,5 -68,3 -112,0 0,0 -52,-6 -52,-6 -32,-10 -16,-2 -39,-21l-18 6c-55,36 -196,14 -271,13l8 -74 -15 0 -2 73 -219 16c-45,-6 -113,19 -155,0 -14,-39 -9,-77 -11,-129l-18 27c20,31 12,65 18,111 -36,19 -48,17 -90,22l5 -37c-19,42 0,2 -19,21 -17,25 16,11 -42,25 -22,5 -47,8 -70,12l-147 18c-15,-10 -11,0 -18,-15 -12,33 -2,23 -35,36 -5,2 -47,8 -57,10 -3,-4 -14,1 -24,-20l-9 8c-17,18 -6,14 -33,25 -6,2 -23,5 -30,7 -18,4 -41,8 -61,11l-171 40 -113 21 11 -51 -19 18 -1 40 -116 25 -10 -32 -6 25c-26,17 -37,14 -75,22 -33,6 -48,9 -80,23 -45,27 -59,150 -175,269l2 -86c-21,-27 -14,-26 -13,-71 -46,-174 -265,-263 -474,-190 -66,23 -79,49 -116,68 -59,29 -143,17 -243,110 -27,25 -64,61 -51,102 33,9 137,-36 206,-35 16,167 -17,220 75,363 193,303 783,152 1046,91 525,-124 980,-196 1539,-217 314,-12 819,85 1143,155 327,70 839,235 1102,162 232,-65 367,-254 325,-548 89,11 155,49 221,57 25,-82 -101,-154 -170,-186 -43,-19 -101,-27 -135,-47 -34,-20 -51,-48 -98,-73 -87,-47 -201,-61 -305,-26 -104,35 -131,81 -186,162 -10,66 7,27 -26,42 20,34 18,139 24,190 -38,-39 -75,-80 -107,-144 -56,-111 -26,-140 -82,-163 -51,2 -106,-10 -150,-27l-22 -52 2 51c-31,-4 -64,-9 -92,-16 -43,-11 -34,-7 -58,-28 -19,14 1,10 -31,9 -2,0 -30,-6 -30,-6 -27,-7 -33,-10 -50,-21 -66,2 -109,-22 -168,-31l-127 -20 10 -74 -19 38 -13 29 -104 -17c4,-32 10,-46 12,-77 1,-13 1,-35 3,-46 6,-31 0,-10 13,-26l-29 -30c-1,49 5,98 2,157 -14,9 -10,13 -38,11 -4,0 -32,-6 -38,-8 -31,-6 -59,-11 -87,-17l-127 -16c10,-24 21,-52 23,-85 1,-16 -1,-33 1,-48 4,-40 -19,12 12,-35l-17 -21 -3 138c-41,-22 -7,9 -36,-28z"/>
  <path class="fil6" d="M6978 9113c-68,6 -109,-1 -127,-59 -17,-53 3,-111 45,-129 60,-26 108,6 121,48 25,78 -13,104 -39,139zm-167 -36l-8 74c74,1 216,22 271,-13l-135 -608c-33,46 -116,459 -128,547z"/>
  <polygon class="fil7" points="6582,9081 6574,9165 6793,9149 6795,9076 6669,8641 "/>
  <path class="fil0" d="M9568 8248c-71,-92 -81,-62 -204,-95 26,151 -10,110 -25,241 -12,112 -52,123 -82,195 23,35 14,37 49,63 55,-105 185,-257 261,-404z"/>
  <path class="fil7" d="M7091 9132c22,20 7,11 39,21 0,0 52,6 52,6 44,3 68,5 112,0l1 -98 -89 -421 -115 491z"/>
  <path class="fil0" d="M6978 9113c26,-36 64,-61 39,-139 -14,-43 -61,-75 -121,-48 -42,18 -62,76 -45,129 18,58 59,65 127,59z"/>
  <path class="fil2" d="M6987 9469c79,3 127,-5 128,-87 2,-88 -45,-97 -128,-95l-1 182z"/>
  <path class="fil7" d="M8395 9300c-23,25 7,-30 -12,19 -5,14 -3,12 -6,24 24,21 15,17 58,28 28,7 61,12 92,16l-2 -51c-24,-86 -75,-145 -127,-183l-3 149z"/>
  <path class="fil8" d="M7294 9062l-1 98 160 15 19 -138 -18 -24c9,64 12,71 -8,133 -37,-59 -73,-146 -138,-173l4 113 -18 -24z"/>
  <path class="fil8" d="M8099 9245l-1 48c59,9 102,33 168,31l10 -57 -12 43 -57 -114c-23,-36 -51,-63 -87,-86l3 137c-21,9 -3,11 -24,-2z"/>
  <path class="fil7" d="M5360 9357l10 32 116 -25 1 -40 -1 -154c-59,43 -108,115 -126,187z"/>
  <path class="fil8" d="M7682 9180l0 35c28,6 56,11 87,17 7,1 35,7 38,8 28,1 25,-2 38,-11 -15,-14 -8,-4 -21,-25 -12,-18 -7,-12 -17,-34 -35,-73 -55,-84 -113,-135 -2,51 30,120 -13,147z"/>
  <path class="fil9" d="M3535 5724l12 13c2,2 10,10 12,12 11,11 19,21 28,33 19,26 26,43 40,81 27,71 31,118 78,158l14 -189c-60,-31 -121,-82 -185,-108z"/>
  <path class="fil8" d="M8548 9386c44,17 99,29 150,27 -33,-75 -61,-167 -140,-205 7,78 14,111 -10,179z"/>
  <path class="fil7" d="M7981 9199l-10 74 127 20 1 -48c-19,-65 -78,-133 -125,-160l7 113z"/>
  <path class="fil9" d="M3725 6671c-4,-32 -6,-60 -9,-93 -1,-12 -3,-33 -5,-44 -11,-63 -10,-44 -166,-111l86 132c32,56 44,85 94,116z"/>
  <path class="fil8" d="M6420 9165c42,19 109,-6 155,0l7 -84 -16 53 -10 -145c-81,53 -74,97 -136,176z"/>
  <path class="fil8" d="M5612 9315l-3 22 171 -40 -3 -18c-34,-35 -23,-91 -18,-144l-84 83c-54,77 -17,83 -63,98z"/>
  <path class="fil9" d="M3755 5575l41 -168 -104 -97c-16,-12 -6,-5 -26,-17 48,127 59,247 89,282z"/>
  <path class="fil10" d="M8277 9267l-10 57c17,11 23,14 50,21 0,0 29,6 30,6 32,1 12,5 31,-9 3,-12 1,-10 6,-24 19,-48 -11,7 12,-19 -25,-22 -22,-30 -43,-64 -25,-39 -25,-40 -73,-60l-2 92z"/>
  <path class="fil7" d="M5777 9279l3 18c20,-3 43,-7 61,-11 7,-1 24,-4 30,-7 27,-11 16,-7 33,-25l-5 -149c-43,47 -102,81 -122,174z"/>
  <path class="fil7" d="M7682 9214l0 -35c-12,-56 -42,-115 -90,-151 -30,47 -7,-4 -12,35 -2,16 0,32 -1,48 -2,33 -13,61 -23,85l127 16z"/>
  <path class="fil8" d="M5198 9427c32,-14 47,-17 80,-23 38,-7 50,-5 75,-22 -35,-1 -29,-17 -31,-60 -1,-28 5,-67 6,-97 -73,69 -94,82 -130,202z"/>
  <path class="fil7" d="M6192 9199l1 18c23,-4 48,-7 70,-12 58,-14 25,0 42,-25l-7 -151c-42,25 -94,95 -106,169z"/>
  <path class="fil8" d="M6046 9235l147 -18 -1 -18c-45,-2 -13,-113 -10,-145 -69,46 -96,87 -136,181z"/>
  <path class="fil6" d="M5506 9306l-11 51 113 -21 3 -22 -4 -140c-40,28 -81,67 -102,132z"/>
  <path class="fil11" d="M7962 9237c-16,-61 -45,-109 -89,-137 -13,16 -6,-5 -13,26 -2,11 -2,33 -3,46 -2,31 -8,44 -12,77l104 17 13 -29z"/>
  <path class="fil6" d="M5913 9246c10,21 21,16 24,20 9,-2 51,-8 57,-10 32,-12 22,-3 35,-36l6 -130c-41,25 -38,27 -68,65 -31,40 -28,56 -53,91z"/>
  <path class="fil12" d="M6132 7748l98 -1c39,-6 113,-7 150,9 62,27 16,2 37,34l-225 -31c-25,95 -116,8 -117,7l57 -17zm704 -316c108,5 84,35 94,143 7,80 23,150 -75,144 -21,15 15,7 -40,15l-128 -24c-29,-58 -43,-182 -16,-256 40,-23 109,-22 166,-23zm247 -2c93,-8 112,-24 122,74 7,67 15,125 10,194 -41,32 -60,35 -132,41l-103 -3c-33,-68 -56,-205 -26,-293l130 -13zm181 -330l86 0 16 314 -200 -2c-22,-79 -37,-239 4,-310l94 -3zm-301 1c61,4 125,3 169,26 5,53 5,128 5,183 -1,82 -26,99 -102,92 -41,22 -142,15 -183,-5 -30,-66 -36,-205 -8,-283l120 -13zm180 -255c33,20 17,-5 31,43 4,15 7,49 7,65 3,66 4,78 -20,126 -38,12 -151,14 -182,-7 -39,-34 -35,-160 -14,-217 41,-23 140,-30 178,-11zm76 227c-23,-41 -33,-185 -16,-234l124 -5 23 249 -131 -10zm-674 -1c-18,11 7,3 -25,9 -141,28 -167,-46 -138,-185 11,-52 53,-48 108,-49 109,2 193,-40 187,82l20 -32c24,-44 12,-53 60,-61 41,-6 114,-4 144,7 46,35 44,144 37,184 -9,50 -22,42 -26,44 -37,30 -156,19 -201,-2 -9,-44 6,-170 -17,-91 -5,109 -30,114 -150,93zm1012 -210l54 -4c29,94 46,136 34,255l-137 -13 -143 -15 -20 -247c58,3 171,-4 212,24zm-76 -267c39,-5 20,-9 60,2 0,0 29,17 32,19 22,81 38,124 24,221l-99 -7 -155 -13 -21 -242c48,3 127,-4 159,19zm-369 -14l195 -12 16 251 -203 -4 -7 -235zm-173 -2l133 1c32,52 38,166 20,238l-153 2 -97 -5 -8 -234 105 -2zm-540 -9c-58,3 -126,6 -175,-10 -18,-49 -12,-145 6,-189l181 -11c76,-1 112,-22 125,47 31,158 4,159 -60,162 -23,1 -50,-1 -76,0zm232 -223l62 2 73 -3 120 1c86,260 -23,217 -120,218l-119 1 -87 -5 -7 -197 78 -17zm843 -2l-2 18c62,-5 66,9 78,68 9,46 13,81 6,127 -48,16 -56,7 -106,5l-147 -36c-8,19 -2,9 -11,26 -50,0 -77,6 -113,-11 -8,-4 -10,9 -17,-12 -2,-5 -5,-5 -8,-7l3 39 -224 -1 -12 -222 94 -8c101,-8 169,-32 140,154 39,-48 6,-83 26,-159l98 -3c11,54 8,131 32,173l-13 -182 177 32zm-926 -139l85 -4 -1 119 0 26 -184 -6 6 -124 94 -10zm-199 138l-110 0 2 -109c25,-6 69,-11 107,-16l87 -6c0,130 30,128 -87,131zm418 -155c12,0 38,-3 48,-2 27,2 16,2 32,6 3,1 16,6 19,8l-3 122 -112 6 -102 -7 -3 -118 120 -14zm488 -33c18,39 21,103 24,154l-122 -2c-22,-43 -19,-91 -26,-141l123 -11zm-223 17l77 -3c18,31 14,30 19,73 3,29 4,27 0,61l-97 8 -153 7c0,-44 2,-92 -11,-118 45,-30 107,-24 165,-28zm-768 -65c27,32 -9,16 52,22 6,1 42,-3 49,-4 37,-5 61,-8 98,-11 63,-5 128,-11 191,-18l346 -30 250 -17 9 92c-69,6 -157,20 -220,5l-89 15c-28,2 -52,4 -80,6 -57,5 -123,12 -175,2 -52,30 -338,13 -453,45l0 20c-4,5 -7,5 -13,22 -7,20 -6,13 -7,38 0,37 8,31 8,75 -59,36 -28,167 -10,213l83 2c114,3 178,-39 155,107 27,-34 18,-53 15,-103 50,-7 300,-38 311,7 22,11 19,-33 38,111 7,49 13,63 -8,114l-87 -5c-47,29 -185,13 -241,2l-9 -120 -3 50 -12 76 -265 2c21,25 -31,23 34,20 139,5 133,-25 135,121 2,136 -10,104 -135,107l-52 9 -10 12 72 -4 110 -2c21,1 48,1 69,6 53,13 38,11 46,38l18 22c1,-2 3,-11 4,-9 21,42 -38,-45 108,-55 47,0 89,-4 123,14 41,-4 65,9 92,24l7 264 -126 23 -111 -7 -67 -8c-9,-17 -18,-34 -22,-59l-23 -88c9,52 9,84 0,137l-118 21 -111 -7c-37,-2 -75,-6 -96,-7l-11 14 74 8c52,1 92,-8 133,10 41,55 26,176 15,244 -39,36 -73,33 -132,34 -73,-3 -102,3 -114,-70 -9,-61 3,-126 -7,-184 -12,42 -14,73 -11,122 4,76 15,59 -24,106l64 66c-40,1 -58,4 -93,16 -45,15 -53,26 -92,-6 -14,15 -19,21 -38,32 40,-11 118,-12 175,-5l7 23c3,3 -5,7 30,4 102,-9 213,6 285,-12l46 -16c-32,-13 -12,3 -30,-29l-98 -27 83 -17c-1,-2 -5,-6 -6,-8 -2,-2 -4,-6 -6,-8 -22,-38 -18,-122 -18,-167 -1,-117 19,-95 133,-99 46,-1 89,0 122,15 21,61 18,177 12,245 -56,35 -48,32 -134,36l-89 -4c14,11 -14,7 38,21 53,11 95,6 150,5 70,-1 91,-12 111,35 4,-14 -7,-19 -23,-46l283 -1c22,15 156,32 181,49l-53 -39c-4,-3 -8,-7 -11,-11 58,0 134,3 166,-10 -45,-43 -43,-219 -38,-288l90 -7 59 3 30 247 12 3 -26 -249 180 1 136 13c-4,-55 14,-77 5,-146 -6,-48 -22,-96 -36,-139 -1,47 30,124 31,184 2,109 -46,79 -136,73l-100 -5 -78 -2c-19,-43 -25,-240 -26,-308l95 10 108 11c36,2 65,6 87,7 -6,-116 12,-196 -47,-275 -1,-83 9,-186 -38,-242 -2,-77 -3,-145 -22,-213 -20,-75 0,-122 -33,-182l7 113c-15,8 -5,5 -27,11 -3,1 -20,1 -24,1l-73 -27 -106 -25 -12 -130c43,7 89,14 120,41l3 -20c-111,-44 -133,-1 -136,-130l41 -5c-72,-33 -153,-15 -247,-4 -87,10 -179,14 -269,24 -116,13 -430,52 -531,39z"/>
  <path class="fil13" d="M6459 7742c-82,-19 -27,-1 -37,14 19,32 -1,16 30,29l-46 16c-72,18 -183,3 -285,12 -35,3 -27,-1 -30,-4l-7 -23c-57,-7 -135,-6 -175,5 -31,-3 -40,5 -61,1l-93 -17 -27 76c-3,29 -1,23 1,33 38,20 64,8 134,41 58,27 74,29 146,0 141,-56 148,-12 293,-16 90,-2 205,-40 289,-59 40,-9 113,-12 147,-23 68,-23 11,-35 94,-39 2,0 6,0 9,0 68,-23 67,-9 116,12 54,23 60,11 100,25 14,20 1,28 0,46 -3,28 -3,40 19,68 33,-7 48,-5 62,-49 25,-30 47,-29 69,-32 -55,-37 -50,-8 -126,1 28,-25 53,-26 74,-32l2 -38c-25,-18 -158,-35 -181,-49l-283 1c16,26 27,32 23,46 -20,-47 -41,-36 -111,-35 -55,1 -97,5 -150,-5z"/>
  <path class="fil14" d="M8083 7492l-60 -15c-15,22 -54,22 -84,27l0 -220c58,27 14,6 59,0 -24,-41 5,-3 -21,-28 -3,-3 -20,-16 -23,-18 -63,-40 -142,-39 -212,-39 13,257 60,314 61,378 55,-13 92,-26 141,-34 65,-11 100,-8 139,-51z"/>
  <path class="fil15" d="M7433 7881c-60,-26 -202,-21 -241,-72 47,-34 265,-12 307,12 -6,32 2,10 -43,41l-16 12c-2,1 -5,4 -7,7zm137 -176l-136 20 -19 -43 -12 -3 2 53 -91 3 -52 -10c-32,13 -108,10 -166,10 3,4 7,8 11,11l53 39 -2 38c-21,6 -46,7 -74,32 76,-9 71,-38 126,-1 -22,4 -44,3 -69,32 109,-24 244,59 293,-6 48,-6 83,-24 144,-29 60,-5 111,3 161,-29l-192 11c-15,28 -21,-24 -36,-47 -52,9 -143,-16 -199,-28 59,-8 98,-4 146,-8 74,-7 93,-21 77,29 62,-17 179,3 195,14 3,-2 7,-8 9,-6l77 -38c-16,-31 15,-18 -44,-31 29,-26 17,-41 6,-74 -22,-64 -13,-99 -44,-157l27 199 -191 20z"/>
  <path class="fil16" d="M7153 6484l-1 39c3,2 7,2 8,7 7,21 10,8 17,12 37,18 63,12 113,11 9,-17 3,-7 11,-26l147 36 -2 -193c11,-7 1,-5 25,-7l2 -18 -177 -32 13 182c-24,-42 -21,-118 -32,-173l-98 3c-20,76 14,111 -26,159z"/>
  <path class="fil17" d="M6179 7084l52 -9 0 -229c-64,3 -13,5 -34,-20l265 -2 -160 -13 0 -226 -83 -2c-10,2 -21,-8 -38,6 -1,50 -12,79 -13,134 -2,139 27,78 -10,150 -44,86 -16,140 -14,204 13,11 23,5 35,7z"/>
  <path class="fil18" d="M7033 7402c76,7 101,-10 102,-92 1,-54 0,-130 -5,-183 -43,-24 -107,-23 -169,-26l0 292 71 9z"/>
  <polygon class="fil19" points="7119,6816 7322,6820 7306,6568 7111,6581 "/>
  <polygon class="fil20" points="7415,7683 7434,7725 7569,7705 7569,7435 7389,7434 "/>
  <path class="fil21" d="M6854 7720c-46,-17 -30,0 -33,-56 -1,-21 2,-62 2,-87 0,-55 -8,-110 13,-145 -57,1 -126,0 -166,23 -26,74 -13,198 16,256l128 24c54,-8 19,0 40,-15z"/>
  <path class="fil18" d="M7569 7705l191 -20 -27 -199c4,-64 12,-24 -28,-38l-136 -13 0 270z"/>
  <path class="fil22" d="M6544 7072c119,21 145,16 150,-93l-18 -50c6,-122 -78,-80 -187,-82l0 216 55 8z"/>
  <path class="fil23" d="M6222 7709c59,-1 93,2 132,-34 12,-68 26,-189 -15,-244 -41,-18 -81,-9 -133,-10 0,84 -20,232 16,288z"/>
  <path class="fil24" d="M6457 6692l17 55 3 -50 9 120c56,11 193,27 241,-2l-94 -8 0 -207c60,0 111,-23 152,-5 -11,-45 -261,-14 -311,-7 3,50 12,69 -15,103z"/>
  <path class="fil18" d="M6726 6816l87 5c21,-50 15,-64 8,-114 -19,-144 -16,-99 -38,-111 -41,-18 -92,4 -152,5l0 207 94 8z"/>
  <path class="fil24" d="M7033 7402l-71 -9 0 -292 -120 13c-28,78 -22,217 8,283 41,20 142,27 183,5z"/>
  <path class="fil25" d="M6979 7736l103 3 0 -309 -130 13c-30,88 -7,224 26,293z"/>
  <path class="fil20" d="M6421 7756c10,-14 -44,-33 37,-14 -52,-14 -25,-10 -38,-21l89 4 0 -296c-114,4 -134,-19 -133,99 0,45 -3,129 18,167 2,3 4,6 6,8 2,3 5,6 6,8l-83 17 98 27z"/>
  <path class="fil25" d="M7507 7101l0 -231 49 -8c-40,-27 -153,-21 -212,-24l20 247 143 15z"/>
  <path class="fil26" d="M6169 7096c-34,6 -33,-30 -53,106 -9,62 -8,105 -8,168l12 0c0,75 -4,7 23,29 21,1 59,5 96,7l1 -314 -72 4z"/>
  <path class="fil27" d="M6510 7725c86,-4 77,-1 134,-36 5,-69 9,-185 -12,-245 -33,-14 -75,-16 -122,-15l0 296z"/>
  <path class="fil27" d="M7082 7739c72,-6 91,-10 132,-41 6,-69 -3,-127 -10,-194 -10,-98 -29,-82 -122,-74l0 309z"/>
  <path class="fil18" d="M6462 6824l12 -76 -17 -55c22,-146 -41,-104 -155,-107l0 226 160 13z"/>
  <path class="fil18" d="M6938 6819l153 -2c18,-72 12,-186 -20,-238l-133 -1 0 240z"/>
  <path class="fil25" d="M6229 6370c-17,43 -24,140 -6,189 49,16 118,13 175,10 0,-65 -12,-165 11,-210l-181 11z"/>
  <path class="fil28" d="M6582 7410l111 7c0,-56 0,-112 0,-169 0,-25 -3,-63 -2,-86 3,-56 -12,-38 28,-56 -35,-18 -76,-14 -123,-14 -33,77 -14,229 -14,318z"/>
  <path class="fil29" d="M6692 7416l126 -23 -7 -264c-27,-15 -52,-28 -92,-24 -41,18 -26,0 -28,56 -1,23 2,61 2,86 0,56 0,112 0,169z"/>
  <path class="fil29" d="M7570 7420c90,5 138,36 136,-73 -1,-60 -32,-137 -31,-184 14,-66 7,-21 -18,-29 -22,-1 -51,-5 -87,-7l0 293z"/>
  <path class="fil29" d="M6351 7412l118 -21c9,-53 10,-85 0,-137 -12,-40 -10,-77 -3,-120 -8,-27 7,-25 -46,-38 -20,-5 -47,-5 -69,-6l0 322z"/>
  <path class="fil25" d="M7365 7415l-102 -11 0 -304 -94 3c-41,71 -26,231 -4,310l200 2z"/>
  <polygon class="fil28" points="6239,7405 6351,7412 6351,7090 6240,7092 "/>
  <path class="fil30" d="M6263 6108c-32,11 -37,9 -44,41 -3,13 -1,23 2,35 14,45 -5,9 20,31 114,-32 401,-14 453,-45l-41 -8 0 -65c-64,8 -129,13 -191,18 -37,3 -61,6 -98,11 -7,1 -43,5 -49,4 -61,-6 -25,10 -52,-22z"/>
  <path class="fil19" d="M7217 7074l131 10 -23 -249 -124 5c-17,50 -7,193 16,234z"/>
  <path class="fil28" d="M7470 7415l100 5 0 -293 -108 -11c0,83 -12,227 8,300z"/>
  <path class="fil27" d="M7507 7101l137 13c12,-120 -5,-162 -34,-255l-54 4 -49 8 0 231z"/>
  <path class="fil18" d="M7012 6329l0 213 143 18 -3 -39 1 -39c29,-186 -39,-162 -140,-154z"/>
  <path class="fil25" d="M7497 6830c-32,-24 38,-9 -36,-21 0,-51 -21,-192 19,-214 -32,-23 -111,-16 -159,-19l21 242 155 13z"/>
  <path class="fil22" d="M7405 6184l-3 20c-30,26 -17,79 -2,114l73 27c4,0 21,0 24,-1 22,-6 13,-3 27,-11l-7 -113c19,-4 12,0 29,-9 -1,-60 1,-101 -49,-114 -68,-17 -16,-5 -37,4l-60 12 4 70z"/>
  <path class="fil29" d="M6766 6565c97,-1 206,42 120,-218l-120 -1 0 219z"/>
  <path class="fil27" d="M7497 6830l99 7c14,-96 -2,-140 -24,-221 -3,-2 -32,-19 -32,-19 -40,-11 -21,-7 -60,-2 -40,22 -19,163 -19,214 74,12 4,-3 36,21z"/>
  <path class="fil23" d="M6231 7075c125,-3 137,29 135,-107 -2,-146 4,-117 -135,-121l0 229z"/>
  <path class="fil19" d="M6653 6098l0 65 41 8c53,9 119,2 175,-2 28,-2 52,-5 80,-6l89 -15 -45 -9 5 -71 -346 30z"/>
  <path class="fil30" d="M6466 7134c-7,43 -9,80 3,120l23 88c5,25 13,43 22,59l67 8c0,-89 -20,-241 14,-318 -146,10 -87,97 -108,55 -1,-2 -3,7 -4,9l-18 -22z"/>
  <path class="fil29" d="M6398 6570c26,-1 53,1 76,0 65,-4 91,-4 60,-162 -14,-70 -50,-48 -125,-47 -23,46 -11,146 -11,210z"/>
  <path class="fil22" d="M7160 7081c24,-49 23,-60 20,-126 -1,-16 -3,-50 -7,-65 -15,-49 2,-23 -31,-43l-95 11 0 211c51,9 60,18 113,12z"/>
  <path class="fil29" d="M6854 7720c99,5 83,-65 75,-144 -10,-108 14,-138 -94,-143 -21,35 -13,90 -13,145 0,24 -3,65 -2,87 3,56 -13,39 33,56z"/>
  <polygon class="fil27" points="7365,7415 7349,7101 7263,7100 7263,7404 "/>
  <path class="fil18" d="M6911 7073c4,-2 18,6 26,-44 7,-41 8,-150 -37,-184l-97 15 0 209 108 5z"/>
  <path class="fil24" d="M6675 6930l18 50c22,-79 8,47 17,91 45,21 164,32 201,2l-108 -5 0 -209 97 -15c-30,-11 -103,-13 -144,-7 -48,8 -36,17 -60,61l-20 32z"/>
  <path class="fil24" d="M6102 7454c10,58 -2,123 7,184 11,74 40,67 114,70 -36,-55 -16,-204 -16,-288l-74 -8c-44,12 -32,-37 -31,41z"/>
  <path class="fil31" d="M8083 7492l18 -17c14,-42 -37,-127 -63,-156l-40 -34c-45,6 -1,27 -59,0l0 220c30,-5 69,-5 84,-27l60 15z"/>
  <path class="fil14" d="M7470 7415c-20,-74 -8,-218 -8,-300l-95 -10c1,68 7,265 26,308l78 2z"/>
  <path class="fil32" d="M6544 7072l-55 -8 0 -216c-55,0 -97,-3 -108,49 -28,139 -2,213 138,185 32,-6 8,2 25,-9z"/>
  <path class="fil21" d="M7262 7726l52 10 0 -306 -90 7c-5,70 -7,245 38,288z"/>
  <path class="fil28" d="M6647 6566l119 -1 0 -219 -73 3c-28,19 41,14 -46,21l0 196z"/>
  <path class="fil24" d="M7160 7081c-53,5 -62,-3 -113,-12l0 -211 95 -11c-38,-19 -137,-11 -178,11 -21,57 -25,183 14,217 31,21 145,19 182,7z"/>
  <polygon class="fil24" points="6938,6819 6938,6578 6833,6581 6841,6814 "/>
  <polygon class="fil27" points="7314,7736 7405,7733 7403,7680 7372,7433 7314,7430 "/>
  <path class="fil33" d="M6999 6067l-5 71 45 9c63,14 150,0 220,-5l-9 -92 -250 17z"/>
  <path class="fil16" d="M6866 6201c14,26 11,74 11,118l153 -7 0 -138c-58,3 -119,-2 -165,28z"/>
  <polygon class="fil24" points="7155,6561 7012,6543 7012,6329 6919,6338 6930,6560 "/>
  <path class="fil29" d="M7448 6563c51,2 59,12 106,-5 7,-47 3,-82 -6,-127 -11,-58 -16,-73 -78,-68 -24,2 -13,0 -25,7l2 193z"/>
  <path class="fil14" d="M6647 6566l0 -196c87,-6 18,-2 46,-21l-62 -2 -78 17 7 197 87 5z"/>
  <path class="fil19" d="M7156 6309l122 2c-3,-51 -6,-115 -24,-154l-123 11c6,49 4,98 26,141z"/>
  <path class="fil34" d="M7738 7823c18,-12 19,51 12,-38l-21 8c-16,-10 -133,-30 -195,-14 15,-50 -3,-36 -77,-29 -47,4 -86,1 -146,8 56,12 146,37 199,28 15,24 21,76 36,47l192 -11z"/>
  <path class="fil35" d="M7433 7881c2,-3 6,-6 7,-7l16 -12c45,-31 37,-9 43,-41 -42,-24 -260,-46 -307,-12 39,51 182,47 241,72z"/>
  <path class="fil24" d="M7405 6184l-4 -70 60 -12c-17,-16 -13,-16 -38,-29 -7,-4 -27,-9 -36,-12 -34,-11 -41,-19 -77,-11l-41 5c4,129 25,86 136,130z"/>
  <path class="fil36" d="M7059 7867c1,-18 14,-26 0,-46 -40,-14 -46,-1 -100,-25 -48,-21 -48,-34 -116,-12l40 31c15,9 19,9 35,17 -45,34 -48,-6 -96,44 63,30 149,-14 236,-10z"/>
  <path class="fil27" d="M6752 6329l112 -6 3 -122c-4,-2 -16,-7 -19,-8 -16,-4 -5,-4 -32,-6 -10,-1 -36,2 -48,2 -23,50 -15,82 -15,139z"/>
  <polygon class="fil21" points="6631,6347 6631,6321 6543,6321 6547,6207 6453,6217 6447,6341 "/>
  <path class="fil21" d="M6752 6329c0,-57 -9,-89 15,-139l-120 14 3 118 102 7z"/>
  <path class="fil20" d="M7400 6318c-15,-35 -28,-88 2,-114 -32,-27 -77,-35 -120,-41l12 130 106 25z"/>
  <path class="fil33" d="M7031 6312l97 -8c4,-34 3,-32 0,-61 -5,-43 -2,-42 -19,-73l-77 3 0 138z"/>
  <path class="fil37" d="M6241 6236l-2 109 110 0 0 -125c-38,5 -82,10 -107,16z"/>
  <path class="fil27" d="M6348 6220l0 125c117,-3 87,-1 87,-131l-87 6z"/>
  <path class="fil13" d="M5947 7758c39,32 47,21 92,6 35,-12 53,-14 93,-16l-64 -66c-44,2 -61,21 -113,33l-7 42z"/>
  <polygon class="fil29" points="6631,6321 6632,6202 6547,6207 6543,6321 "/>
  <path class="fil34" d="M6132 7748l-57 17c1,1 92,88 117,-7l225 31c-21,-32 24,-7 -37,-34 -37,-16 -111,-15 -150,-9l-98 1z"/>
  <path class="fil11" d="M7453 9175c24,18 56,18 95,22l-12 -79c-16,-44 -24,-57 -64,-81l-19 138z"/>
  <path class="fil10" d="M6323 9160l-5 37c42,-4 54,-3 90,-22 -5,-46 2,-80 -18,-111 -34,20 -54,49 -68,96z"/>
  <path class="fil38" d="M3755 6564l5 70 90 -100c2,-2 5,-5 7,-7l-102 37z"/>
  <path class="fil39" d="M6830 5471c64,-34 49,-47 129,-28 66,16 89,8 136,45l22 -76c25,36 36,86 39,130 -84,-2 -261,-41 -326,-72zm265 0c-51,-24 -117,-28 -168,-49 61,-77 166,-104 168,49zm98 -314c3,2 4,5 5,10l7 20c1,6 0,34 0,34 -10,69 -78,136 -150,136 -49,-50 -55,-73 -40,-160l-18 -15c-1,-5 -7,4 -11,5l-12 -4c-1,1 18,26 -61,8 -40,-11 -36,-13 -52,18 42,23 37,27 39,81l-50 38c0,69 -52,112 -99,136 -100,50 -140,12 -211,39l179 0c16,27 58,90 35,144 -19,45 8,17 -36,31 22,22 33,36 74,46l-9 23c58,-37 105,-72 167,-110 44,-27 58,-15 99,-47 44,-35 25,-41 106,-36 39,73 69,191 -36,190 -51,-1 -43,-9 -42,-40 -15,10 -35,27 -57,40l-75 43c100,6 206,66 259,-33 3,2 7,2 8,7l32 31c-24,-39 -2,-50 -2,-105 0,-47 -14,-72 -21,-113 -14,-83 7,-177 59,-215 2,89 -38,112 1,194 -13,-105 4,-153 23,-243 -15,-11 -40,-30 -57,-44 -32,-28 -44,-24 -18,-68 12,-32 9,-22 35,-37 -54,-3 -21,10 -29,-17l-41 13z"/>
  <path class="fil40" d="M7086 4923c-20,-21 -5,-43 -4,-77 -17,-10 -30,-11 -38,-13 -3,48 -11,83 9,129 -85,21 -118,-40 -142,-102 -117,42 -147,31 -192,59 37,32 56,24 101,68 39,39 51,55 111,59 -68,11 -60,-9 -113,-17 16,52 1,28 32,53l-49 17c41,34 6,-3 61,24 -33,18 -36,22 -44,61 47,-24 63,-40 127,-44l-33 51c79,18 61,-7 61,-8l12 4c4,-2 10,-10 11,-5l18 15c39,-33 28,-30 56,-33 14,-2 4,21 17,-6 38,-75 -34,34 8,-20l41 3 -42 -26c-41,-28 -31,-24 -28,-101 122,130 119,32 175,106 54,-34 102,-41 136,-79 -19,1 -15,6 -14,-13 -22,14 -31,24 -64,36 16,-24 26,-34 41,-68l-26 -20 -7 54c-20,-12 -20,-10 -40,-27l17 -37c21,-55 -19,-79 74,-75 -47,-34 -34,12 -32,-56 -39,3 -19,6 -44,2 -42,-8 18,-1 -35,-14 -20,54 -32,85 -61,125 -44,2 8,1 -47,-7 -64,-9 -24,16 -53,-19z"/>
  <path class="fil10" d="M6717 5678c44,-14 16,14 36,-31 23,-54 -20,-117 -35,-144l-179 0c-88,14 -285,239 -373,291 -72,42 -112,12 -191,28 28,49 26,35 97,46 196,31 44,76 203,-38 92,-66 159,-55 256,-178l186 27z"/>
  <path class="fil11" d="M6782 5748c-63,27 -218,58 -246,121 43,21 178,26 223,-7 113,-85 84,-29 186,-74l75 -43c22,-13 41,-30 57,-40 -1,30 -9,39 42,40 105,1 75,-116 36,-190 -81,-4 -62,2 -106,36 -40,32 -55,20 -99,47 -62,38 -109,73 -167,110z"/>
  <path class="fil10" d="M6849 5327l50 -38c-1,-54 3,-58 -39,-81l-127 66c0,-111 126,-280 -25,-256 -23,46 -5,95 -30,154 -23,56 -60,88 -25,152 46,59 124,24 196,3z"/>
  <path class="fil10" d="M7015 5197c-15,87 -9,110 40,160 72,0 140,-67 150,-136 0,0 1,-29 0,-34l-7 -20c-1,-6 -2,-8 -5,-10l-57 -16 -41 -3c-42,54 30,-55 -8,20 -13,26 -4,4 -17,6 -28,3 -17,1 -56,33z"/>
  <path class="fil10" d="M7243 5793c42,31 82,2 104,-24 -24,-32 -9,-25 -44,-46 -34,-48 -24,-104 -23,-168 -39,-82 1,-105 -1,-194 -52,38 -73,131 -59,215 7,41 22,66 21,113 0,55 -22,66 2,105z"/>
  <path class="fil7" d="M6830 5471c66,31 243,70 326,72 -4,-44 -15,-94 -39,-130l-22 76c-47,-37 -70,-29 -136,-45 -80,-19 -65,-6 -129,28z"/>
  <path class="fil41" d="M7264 5161c-27,15 -24,5 -35,37 21,44 37,51 81,80 23,15 12,14 40,20 -3,-51 -15,-43 -44,-72l84 2c-18,-46 -19,-31 -48,-64l106 0 -82 -64 -101 60z"/>
  <path class="fil41" d="M7044 4833c8,3 21,4 38,13 -1,34 -16,56 4,77 33,-50 4,-54 56,-53 1,0 43,32 50,-73 -47,-36 -43,4 -59,-54 0,-1 -1,-4 -2,-6 -62,15 -93,-12 -112,72l24 24z"/>
  <path class="fil41" d="M7284 4967l30 10 26 20c3,-3 7,-7 8,-7 13,-3 3,-3 15,1 8,13 18,-11 1,38 -1,19 -5,14 14,13 47,-22 78,-22 88,-74 -25,-51 -53,-38 -107,-75 -94,-5 -53,20 -74,75z"/>
  <path class="fil7" d="M7136 5141l57 16 41 -13 7 -23c-55,-75 -53,24 -175,-106 -3,77 -12,73 28,101l42 26z"/>
  <path class="fil8" d="M7303 5722c17,-10 -6,-7 24,-8 28,-1 47,17 128,2 -10,-11 -6,-10 -24,-21 -80,-54 -114,-30 -151,-141 -1,64 -11,120 23,168z"/>
  <path class="fil42" d="M7095 5471c-2,-152 -107,-125 -168,-49 51,21 117,25 168,49z"/>
  <path class="fil43" d="M7340 4998c-14,34 -25,44 -41,68 33,-12 42,-22 64,-36 17,-49 7,-25 -1,-38 -12,-4 -2,-4 -15,-1 -1,0 -6,5 -8,7z"/>
  <path class="fil44" d="M7314 4978l-30 -10 -17 37c20,17 20,15 40,27l7 -54z"/>
  <path class="fil45" d="M7066 5188c3,0 8,2 13,4 5,2 9,5 8,8l-7 -1c0,-1 -2,0 -4,-1 -4,-2 -8,-4 -10,-4l1 -7z"/>
  <path class="fil45" d="M7150 5223c4,2 9,6 14,10 2,2 3,4 4,4l1 7c-2,0 -5,-2 -9,-6 -4,-3 -9,-8 -12,-9l3 -6z"/>
  <path class="fil45" d="M7122 5216c-4,4 -6,17 -8,29 -3,15 -6,31 -12,36 -6,4 -12,1 -21,-11l6 -4c6,9 10,11 12,10 4,-3 7,-17 10,-31 2,-13 5,-27 10,-32l5 4z"/>
  <path class="fil45" d="M7054 5290c5,3 12,7 19,11 7,4 14,7 19,8l-2 7c-5,-1 -13,-5 -20,-9 -7,-4 -14,-8 -19,-11l4 -6z"/>
  <path class="fil46" d="M4708 3896l334 64 -120 -140c-17,-20 -31,-31 -43,-33 -16,-3 -33,4 -50,20l-7 -8 108 -93 7 8c-12,14 -19,24 -22,31 -2,7 -2,15 1,23 3,9 11,21 24,36l234 271 -8 7 -454 -82 179 208c16,19 31,28 46,27 14,-1 27,-6 38,-16l8 -7 7 8 -116 100 -7 -8c18,-16 27,-30 28,-44 1,-13 -6,-29 -21,-46l-198 -230 -14 -3c-15,-3 -26,-4 -33,-2 -8,2 -17,7 -27,15l-7 -8 115 -99zm714 -3l6 9 -188 121 -6 -9 12 -8c10,-7 18,-14 22,-22 3,-6 4,-12 2,-20 -1,-6 -7,-17 -19,-36l-153 -238c-12,-19 -20,-30 -25,-33 -5,-3 -12,-5 -20,-5 -8,0 -17,4 -27,10l-12 8 -6 -9 188 -121 6 9 -12 8c-10,7 -18,14 -21,22 -3,5 -4,12 -3,20 1,6 7,17 19,36l153 238c12,19 20,30 25,33 5,3 12,5 20,5 8,0 17,-4 27,-10l12 -8zm203 -233l-134 68 2 46c1,15 4,27 8,35 6,11 14,17 25,18 7,0 20,-4 41,-12l5 10 -127 64 -5 -10c13,-9 21,-21 25,-34 4,-14 5,-39 3,-75l-17 -375 5 -3 297 244c28,23 49,37 61,40 9,3 20,2 32,-3l5 10 -185 94 -5 -10 8 -4c15,-8 24,-15 28,-22 3,-5 2,-11 0,-16 -2,-3 -4,-7 -7,-10 -1,-1 -8,-7 -19,-17l-45 -37zm-20 -16l-123 -102 7 160 116 -58zm403 -469l50 134 -12 4c-17,-32 -41,-54 -71,-67 -30,-13 -58,-15 -84,-6 -20,7 -35,18 -43,33 -8,15 -10,30 -5,44 3,9 8,16 15,22 9,7 21,13 37,18 12,3 37,8 77,13 56,7 95,18 119,33 24,15 40,36 49,63 12,34 8,68 -10,101 -18,34 -47,57 -88,71 -13,4 -25,7 -38,9 -12,1 -28,1 -48,0 -11,-1 -20,0 -26,2 -5,2 -10,6 -14,12 -4,6 -7,14 -8,23l-10 4 -53 -153 10 -4c24,40 52,67 85,81 33,14 64,16 93,6 22,-8 38,-20 47,-37 9,-17 11,-33 5,-49 -3,-10 -9,-18 -17,-25 -8,-7 -19,-13 -32,-18 -13,-4 -35,-9 -66,-13 -43,-5 -75,-12 -96,-19 -20,-7 -38,-17 -52,-30 -14,-13 -24,-29 -31,-48 -11,-32 -9,-64 7,-95 16,-31 42,-53 78,-65 13,-5 26,-7 40,-8 10,-1 23,0 39,1 16,2 26,2 32,0 5,-2 9,-5 11,-9 2,-4 2,-13 1,-26l9 -3zm603 -114l21 142 -13 2c-11,-35 -29,-62 -55,-80 -27,-19 -54,-26 -81,-23 -21,3 -38,10 -49,23 -11,13 -16,27 -14,42 1,9 4,18 10,24 7,9 18,18 33,26 11,6 35,15 73,28 53,18 90,37 110,57 20,20 32,43 35,72 4,36 -6,68 -30,97 -25,29 -58,46 -101,52 -13,2 -26,2 -39,1 -12,-1 -28,-4 -47,-10 -11,-3 -19,-4 -26,-3 -5,1 -11,4 -16,8 -6,5 -10,12 -12,21l-11 1 -20 -161 11 -1c15,44 37,76 66,97 29,20 59,29 90,25 23,-3 41,-12 54,-26 12,-14 18,-30 15,-47 -1,-10 -5,-19 -12,-28 -7,-9 -16,-17 -28,-24 -12,-7 -33,-16 -62,-26 -41,-14 -71,-27 -90,-38 -19,-11 -33,-25 -44,-40 -11,-15 -18,-33 -20,-53 -4,-34 5,-64 27,-92 22,-27 52,-43 90,-47 14,-2 27,-2 41,0 10,1 23,4 38,9 15,5 25,7 31,6 5,-1 10,-3 12,-7 3,-4 5,-12 6,-25l10 -1zm274 17l5 175 9 0c27,-1 47,-10 59,-27 12,-17 19,-43 21,-76l12 0 7 225 -12 0c-3,-24 -9,-44 -18,-60 -9,-15 -18,-26 -29,-31 -11,-5 -27,-7 -47,-7l4 121c1,24 2,38 4,43 2,5 6,9 12,13 6,3 15,5 27,4l26 -1c40,-1 72,-11 96,-31 24,-19 40,-48 50,-86l12 0 -15 137 -371 11 0 -11 14 0c12,0 22,-3 30,-8 5,-3 9,-8 12,-16 2,-5 3,-19 2,-40l-8 -283c-1,-20 -1,-32 -3,-36 -2,-7 -6,-13 -12,-17 -8,-6 -19,-8 -33,-8l-14 0 0 -11 359 -10 4 127 -12 0c-7,-31 -16,-53 -28,-66 -11,-13 -27,-23 -48,-28 -12,-3 -34,-5 -66,-4l-45 1zm693 304l-35 147 -378 -47 1 -11 14 2c12,2 23,1 31,-3 6,-2 11,-7 14,-14 3,-5 6,-18 8,-39l35 -281c3,-22 3,-36 2,-42 -2,-6 -6,-11 -12,-16 -6,-5 -16,-8 -28,-10l-14 -2 1 -11 227 28 -1 11 -19 -2c-12,-2 -23,-1 -31,3 -6,2 -11,7 -15,14 -3,5 -6,18 -8,39l-34 272c-3,22 -3,36 -1,42 2,6 6,11 13,15 5,2 18,5 38,7l35 4c23,3 42,1 58,-5 16,-6 31,-17 44,-33 13,-16 27,-40 40,-72l14 2zm297 108l-145 -41 -29 35c-10,12 -16,22 -18,31 -3,12 -1,22 7,30 5,5 17,11 38,19l-3 11 -137 -39 3 -11c15,2 29,-1 42,-8 12,-7 30,-25 53,-53l241 -288 6 2 54 381c5,36 11,60 18,71 5,8 14,15 26,19l-3 11 -200 -56 3 -11 8 2c16,5 28,5 36,3 5,-2 9,-6 11,-12 1,-4 2,-8 1,-12 0,-2 -1,-11 -3,-26l-8 -58zm-3 -25l-22 -158 -103 123 125 35zm667 -43l-48 106 -10 -5c5,-27 6,-48 3,-62 -3,-14 -9,-27 -19,-39 -6,-7 -18,-14 -36,-23l-30 -13 -136 303c-9,20 -14,33 -14,39 0,6 2,12 7,19 5,7 13,13 24,17l13 6 -5 10 -204 -92 5 -10 13 6c11,5 21,7 30,6 6,-1 12,-3 18,-9 4,-4 11,-15 20,-35l136 -303 -28 -13c-26,-12 -48,-15 -65,-9 -24,8 -44,26 -62,52l-11 -5 48 -106 352 158zm96 408l-130 -75 -37 27c-12,9 -20,18 -25,26 -6,11 -6,21 -1,31 3,6 14,15 33,28l-5 10 -124 -71 5 -10c14,6 29,6 43,2 14,-4 35,-17 64,-39l303 -221 5 3 -41 382c-4,37 -4,61 0,73 3,9 10,18 21,25l-5 10 -180 -103 5 -10 7 4c14,8 26,12 34,11 6,-1 10,-4 13,-9 2,-3 3,-7 4,-11 1,-2 2,-10 4,-26l6 -58zm3 -25l17 -159 -130 94 113 64zm512 15l-15 340 121 -139c17,-20 26,-35 26,-47 0,-16 -9,-32 -27,-47l7 -8 107 93 -7 8c-15,-10 -26,-16 -34,-17 -7,-1 -15,0 -23,4 -8,4 -19,14 -32,29l-235 270 -8 -7 16 -461 -180 207c-16,19 -23,35 -20,49 3,14 10,26 21,35l8 7 -7 8 -116 -100 7 -8c18,15 34,23 47,21 13,-1 27,-10 43,-28l199 -230 1 -14c1,-15 0,-26 -3,-33 -3,-7 -9,-15 -19,-24l7 -8 115 100z"/>
  <path class="fil46" d="M5844 9474l26 139 10 -2c15,-3 27,-7 35,-14 9,-6 15,-15 20,-27 5,-12 6,-27 5,-46l9 -2 32 169 -9 2c-9,-31 -22,-51 -38,-58 -16,-8 -33,-10 -51,-6l-10 2 19 104c3,17 6,28 9,32 3,4 7,7 13,9 6,2 14,3 23,1l11 -2 2 9 -176 33 -2 -9 11 -2c10,-2 17,-5 23,-10 4,-3 6,-8 8,-14 1,-4 0,-15 -3,-32l-42 -223c-3,-17 -6,-28 -9,-32 -3,-4 -7,-7 -13,-9 -6,-2 -14,-3 -23,-1l-11 2 -2 -9 285 -53 18 97 -10 2c-7,-22 -16,-38 -27,-47 -12,-9 -27,-14 -46,-15 -11,-1 -29,2 -56,7l-31 6zm408 -81l177 -12 1 9 -9 1c-13,1 -22,3 -27,6 -5,3 -8,7 -10,12 -2,5 -2,17 -1,37l11 168c2,31 6,51 11,60 5,10 13,17 25,23 11,6 25,8 41,7 19,-1 34,-6 47,-16 12,-9 21,-21 27,-37 5,-15 7,-41 5,-77l-9 -140c-1,-15 -3,-26 -7,-33 -4,-6 -8,-11 -13,-13 -8,-3 -19,-5 -33,-4l-1 -9 119 -8 1 9 -7 0c-10,1 -17,3 -24,7 -6,4 -10,11 -13,19 -2,6 -2,15 -1,30l9 130c3,40 2,70 -2,88 -4,18 -16,36 -35,52 -20,16 -47,26 -83,28 -30,2 -53,0 -70,-7 -23,-9 -39,-22 -50,-38 -10,-16 -16,-39 -18,-67l-11 -168c-1,-20 -3,-32 -6,-37 -3,-5 -7,-8 -12,-11 -6,-2 -16,-3 -30,-2l-1 -9zm715 155l-2 97c0,19 1,30 3,35 2,5 6,9 12,12 6,3 16,5 32,5l0 9 -176 -3 0 -9c16,0 27,-1 32,-4 6,-3 10,-7 12,-11 2,-5 4,-16 4,-35l4 -225c0,-19 -1,-30 -3,-35 -2,-5 -6,-9 -12,-12 -6,-3 -16,-5 -32,-5l0 -9 160 3c42,1 72,4 91,10 19,6 35,17 47,33 12,16 18,34 17,55 0,25 -10,46 -29,63 -12,10 -28,18 -49,23l80 118c11,15 18,25 23,28 7,5 15,8 24,9l0 9 -108 -2 -108 -159 -23 0zm3 -168l-3 150 14 0c24,0 41,-1 53,-6 12,-4 21,-12 28,-23 7,-11 10,-26 11,-44 0,-26 -5,-46 -17,-58 -12,-13 -32,-19 -59,-20l-27 0zm644 261l-120 -11 -18 32c-6,11 -9,20 -10,27 -1,10 2,17 10,23 4,3 15,6 33,9l-1 9 -114 -11 1 -9c12,-1 23,-5 32,-13 9,-8 20,-24 34,-49l148 -261 5 0 97 292c9,28 17,46 24,54 5,6 13,10 23,12l-1 9 -166 -16 1 -9 7 1c13,1 23,0 29,-3 4,-2 6,-6 7,-11 0,-3 0,-6 -1,-10 0,-1 -2,-8 -6,-20l-15 -45zm-6 -19l-40 -122 -63 112 103 10zm531 187l-2 9 -176 -32 2 -9 11 2c10,2 18,1 25,-1 5,-2 9,-5 12,-10 3,-4 5,-14 9,-31l41 -223c3,-17 4,-29 3,-33 -1,-5 -4,-9 -9,-13 -5,-4 -12,-7 -22,-9l-11 -2 2 -9 176 32 -2 9 -11 -2c-10,-2 -18,-1 -24,1 -5,2 -9,5 -12,10 -3,4 -5,14 -9,31l-41 223c-3,17 -4,29 -3,33 1,5 4,9 9,13 5,4 12,7 21,9l11 2z"/>
  <path class="fil47" d="M5783 10052c10,-26 27,-36 43,-37 14,-1 28,6 39,16 10,10 16,24 17,39 0,20 -11,41 -40,55l0 0c-23,10 -46,11 -66,5 -16,-4 -29,-13 -39,-24 -10,-11 -17,-25 -19,-41 -2,-17 2,-36 13,-55l0 -1c53,-77 120,-45 197,7 11,8 22,15 33,23l9 6c7,5 14,10 20,13 -5,-9 -9,-19 -10,-29 -2,-17 2,-36 13,-55l0 -1c53,-77 120,-45 197,7 11,8 22,15 33,23l9 6c10,7 19,13 27,17 -7,-10 -11,-21 -13,-33 -2,-17 2,-36 13,-55l0 -1c53,-77 120,-45 197,7 11,8 22,15 33,23l9 6c6,5 12,8 17,12 -4,-8 -7,-17 -9,-27 -2,-17 2,-36 13,-55l0 -1c53,-77 120,-45 197,7 11,8 22,15 33,23l9 6c23,17 39,24 53,27 14,2 28,0 45,-3 11,-3 22,-7 32,-14 10,-6 18,-14 23,-24 5,-9 6,-20 3,-32 -2,-7 -5,-15 -11,-24 -12,-18 -30,-25 -48,-26 -10,0 -19,2 -28,6 -8,4 -15,9 -20,15 -7,9 -10,20 -6,33 7,16 20,24 33,25 5,0 9,0 13,-2 3,-1 5,-3 7,-5 3,-5 2,-15 -6,-29l25 -15c15,25 14,45 6,59 -5,8 -12,14 -21,17 -8,3 -17,5 -26,4 -22,-2 -47,-16 -58,-44l0 -1c-7,-23 -2,-44 11,-60 8,-10 19,-18 31,-24 12,-5 26,-8 40,-8 27,0 54,12 72,38l0 0c7,11 12,22 15,33 5,20 2,37 -6,52 -7,14 -19,26 -33,35 -13,8 -27,14 -41,17l-1 0c-20,4 -37,7 -56,4 -19,-3 -39,-12 -65,-32l-9 -6c-11,-8 -22,-16 -33,-23 -63,-43 -118,-71 -156,-15 -7,12 -10,25 -9,35 1,9 5,18 12,25 6,7 15,12 25,15 7,2 14,3 22,2l1 0 0 0c7,-1 15,-3 23,-6 16,-8 23,-18 22,-28 0,-7 -3,-14 -8,-20 -5,-5 -10,-8 -15,-7 -6,0 -13,6 -18,19l-27 -11c10,-26 27,-36 43,-37 14,-1 28,6 39,16 10,10 16,24 17,39 0,20 -11,41 -40,55l0 0c-11,5 -22,7 -32,8 -19,4 -35,6 -53,3 -19,-3 -39,-12 -65,-32l-9 -6c-11,-8 -22,-16 -33,-23 -63,-43 -118,-71 -156,-15 -7,12 -10,25 -9,35 1,9 5,18 12,25 6,7 15,12 25,15 14,4 30,3 47,-4 16,-8 23,-18 22,-28 0,-7 -3,-14 -8,-20 -5,-5 -10,-8 -15,-7 -6,0 -13,6 -18,19l-27 -11c10,-26 27,-36 43,-37 14,-1 28,6 39,16 10,10 16,24 17,39 0,20 -11,41 -40,55l0 0c-12,5 -24,8 -36,8 -20,4 -36,7 -55,3 -19,-3 -39,-12 -65,-32l-9 -6c-11,-8 -22,-16 -33,-23 -63,-43 -118,-71 -156,-15 -7,12 -10,25 -9,35 1,9 5,18 12,25 6,7 15,12 25,15 14,4 30,3 47,-4 16,-8 23,-18 22,-28 0,-7 -3,-14 -8,-20 -5,-5 -10,-8 -15,-7 -6,0 -13,6 -18,19l-27 -11c10,-26 27,-36 43,-37 14,-1 28,6 39,16 10,10 16,24 17,39 0,20 -11,41 -40,55l0 0c-10,4 -20,7 -30,8l0 0c-20,4 -37,7 -56,4 -19,-3 -39,-12 -65,-32l-9 -6c-11,-8 -22,-16 -33,-23 -63,-43 -118,-71 -156,-15 -7,12 -10,25 -9,35 1,9 5,18 12,25 6,7 15,12 25,15 14,4 30,3 47,-4 16,-8 23,-18 22,-28 0,-7 -3,-14 -8,-20 -5,-5 -10,-8 -15,-7 -6,0 -13,6 -18,19l-27 -11z"/>
  <path class="fil47" d="M8133 10052c-10,-26 -27,-36 -43,-37 -14,-1 -28,6 -39,16 -10,10 -16,24 -17,39 0,20 11,41 40,55l0 0c23,10 46,11 66,5 16,-4 29,-13 39,-24 10,-11 17,-25 19,-41 2,-17 -2,-36 -13,-55l0 -1c-53,-77 -120,-45 -197,7 -11,8 -22,15 -33,23l-9 6c-7,5 -14,10 -20,13 5,-9 9,-19 10,-29 2,-17 -2,-36 -13,-55l0 -1c-53,-77 -120,-45 -197,7 -11,8 -22,15 -33,23l-9 6c-10,7 -19,13 -27,17 7,-10 11,-21 13,-33 2,-17 -2,-36 -13,-55l0 -1c-53,-77 -120,-45 -197,7 -11,8 -22,15 -33,23l-9 6c-6,5 -12,8 -17,12 4,-8 7,-17 9,-27 2,-17 -2,-36 -13,-55l0 -1c-53,-77 -120,-45 -197,7 -11,8 -22,15 -33,23l-9 6c-23,17 -39,24 -53,27 -14,2 -28,0 -45,-3 -11,-3 -22,-7 -32,-14 -10,-6 -18,-14 -23,-24 -5,-9 -6,-20 -3,-32 2,-7 5,-15 11,-24 12,-18 30,-25 48,-26 10,0 19,2 28,6 8,4 15,9 20,15 7,9 10,20 6,33 -7,16 -20,24 -33,25 -5,0 -9,0 -13,-2 -3,-1 -5,-3 -7,-5 -3,-5 -2,-15 6,-29l-25 -15c-15,25 -14,45 -6,59 5,8 12,14 21,17 8,3 17,5 26,4 22,-2 47,-16 58,-44l0 -1c7,-23 2,-44 -11,-60 -8,-10 -19,-18 -32,-24 -12,-5 -26,-8 -40,-8 -27,0 -54,12 -72,38l0 0c-7,11 -12,22 -15,33 -5,20 -2,37 6,52 7,14 19,26 33,35 13,8 27,14 41,17l1 0c20,4 37,7 56,4 19,-3 39,-12 65,-32l9 -6c11,-8 22,-16 33,-23 63,-43 118,-71 156,-15 7,12 10,25 9,35 -1,9 -5,18 -12,25 -6,7 -15,12 -25,15 -7,2 -14,3 -22,2l-1 0 0 0c-7,-1 -15,-3 -23,-6 -16,-8 -23,-18 -22,-28 0,-7 3,-14 8,-20 5,-5 10,-8 15,-7 6,0 13,6 18,19l27 -11c-10,-26 -27,-36 -43,-37 -14,-1 -28,6 -39,16 -10,10 -16,24 -17,39 0,20 11,41 40,55l0 0c11,5 22,7 32,8 19,4 35,6 53,3 19,-3 39,-12 65,-32l9 -6c11,-8 22,-16 33,-23 63,-43 118,-71 156,-15 7,12 10,25 9,35 -1,9 -5,18 -12,25 -6,7 -15,12 -25,15 -14,4 -30,3 -47,-4 -16,-8 -23,-18 -22,-28 0,-7 3,-14 8,-20 5,-5 10,-8 15,-7 6,0 13,6 18,19l27 -11c-10,-26 -27,-36 -43,-37 -14,-1 -28,6 -39,16 -10,10 -16,24 -17,39 0,20 11,41 40,55l0 0c12,5 24,8 36,8 20,4 36,7 55,3 19,-3 39,-12 65,-32l9 -6c11,-8 22,-16 33,-23 63,-43 118,-71 156,-15 7,12 10,25 9,35 -1,9 -5,18 -12,25 -6,7 -15,12 -25,15 -14,4 -30,3 -47,-4 -16,-8 -23,-18 -22,-28 0,-7 3,-14 8,-20 5,-5 10,-8 15,-7 6,0 13,6 18,19l27 -11c-10,-26 -27,-36 -43,-37 -14,-1 -28,6 -39,16 -10,10 -16,24 -17,39 0,20 11,41 40,55l0 0c10,4 20,7 30,8l0 0c20,4 37,7 56,4 19,-3 39,-12 65,-32l9 -6c11,-8 22,-16 33,-23 63,-43 118,-71 156,-15 7,12 10,25 9,35 -1,9 -5,18 -12,25 -6,7 -15,12 -25,15 -14,4 -30,3 -47,-4 -16,-8 -23,-18 -22,-28 0,-7 3,-14 8,-20 5,-5 10,-8 15,-7 6,0 13,6 18,19l27 -11z"/>
 </g>
</svg>
